<?xml version="1.0" standalone="no" ?>
<!DOCTYPE svg PUBLIC "-//W3C//DTD SVG 1.1//EN" "http://www.w3.org/Graphics/SVG/1.1/DTD/svg11.dtd">
<svg width="1180px" height="1258px" xmlns="http://www.w3.org/2000/svg" version="1.1" >
	<circle cx="273" cy="92" r="1.93798" fill="rgb(0,0,0)" />
	<circle cx="709" cy="444" r="1.9305" fill="rgb(0,0,0)" />
	<circle cx="787" cy="648" r="1.83824" fill="rgb(0,0,0)" />
	<circle cx="285" cy="1134" r="4.7619" fill="rgb(0,0,0)" />
	<circle cx="393" cy="229" r="2.40385" fill="rgb(0,0,0)" />
	<circle cx="119" cy="1071" r="4.62963" fill="rgb(0,0,0)" />
	<circle cx="1135" cy="225" r="2.65957" fill="rgb(0,0,0)" />
	<circle cx="924" cy="1209" r="3.5461" fill="rgb(0,0,0)" />
	<circle cx="474" cy="652" r="2.19298" fill="rgb(0,0,0)" />
	<circle cx="1126" cy="1216" r="4" fill="rgb(0,0,0)" />
	<circle cx="429" cy="450" r="2.5" fill="rgb(0,0,0)" />
	<circle cx="1065" cy="182" r="2.76243" fill="rgb(0,0,0)" />
	<circle cx="54" cy="245" r="2.06612" fill="rgb(0,0,0)" />
	<circle cx="340" cy="351" r="2.43902" fill="rgb(0,0,0)" />
	<circle cx="454" cy="1215" r="4.62963" fill="rgb(0,0,0)" />
	<circle cx="613" cy="652" r="1.98413" fill="rgb(0,0,0)" />
	<circle cx="512" cy="253" r="2.43902" fill="rgb(0,0,0)" />
	<circle cx="1158" cy="502" r="2.17391" fill="rgb(0,0,0)" />
	<circle cx="191" cy="667" r="2.5641" fill="rgb(0,0,0)" />
	<circle cx="1053" cy="1123" r="3.7594" fill="rgb(0,0,0)" />
	<circle cx="295" cy="735" r="3.01205" fill="rgb(0,0,0)" />
	<circle cx="1143" cy="163" r="2.57732" fill="rgb(0,0,0)" />
	<circle cx="530" cy="925" r="2.55102" fill="rgb(0,0,0)" />
	<circle cx="375" cy="665" r="2.99401" fill="rgb(0,0,0)" />
	<circle cx="324" cy="850" r="3.64964" fill="rgb(0,0,0)" />
	<circle cx="202" cy="1149" r="4.6729" fill="rgb(0,0,0)" />
	<circle cx="984" cy="109" r="2.99401" fill="rgb(0,0,0)" />
	<circle cx="39" cy="1130" r="4.62963" fill="rgb(0,0,0)" />
	<circle cx="604" cy="816" r="2.41546" fill="rgb(0,0,0)" />
	<circle cx="1146" cy="284" r="2.60417" fill="rgb(0,0,0)" />
	<circle cx="255" cy="985" r="2.63158" fill="rgb(0,0,0)" />
	<circle cx="1139" cy="33" r="2.6178" fill="rgb(0,0,0)" />
	<circle cx="826" cy="1209" r="3.87597" fill="rgb(0,0,0)" />
	<circle cx="1008" cy="1021" r="3.08642" fill="rgb(0,0,0)" />
	<circle cx="856" cy="568" r="2.87356" fill="rgb(0,0,0)" />
	<circle cx="207" cy="1221" r="4.7619" fill="rgb(0,0,0)" />
	<circle cx="846" cy="509" r="2.60417" fill="rgb(0,0,0)" />
	<circle cx="391" cy="768" r="2.82486" fill="rgb(0,0,0)" />
	<circle cx="63" cy="703" r="2.15517" fill="rgb(0,0,0)" />
	<circle cx="543" cy="382" r="2.29358" fill="rgb(0,0,0)" />
	<circle cx="1153" cy="413" r="2.43902" fill="rgb(0,0,0)" />
	<circle cx="523" cy="1044" r="4.20168" fill="rgb(0,0,0)" />
	<circle cx="1024" cy="1213" r="4.16667" fill="rgb(0,0,0)" />
	<circle cx="787" cy="226" r="1.6835" fill="rgb(0,0,0)" />
	<circle cx="368" cy="1211" r="4.7619" fill="rgb(0,0,0)" />
	<circle cx="196" cy="1078" r="4.71698" fill="rgb(0,0,0)" />
	<circle cx="1122" cy="1039" r="2.99401" fill="rgb(0,0,0)" />
	<circle cx="916" cy="29" r="3.06748" fill="rgb(0,0,0)" />
	<circle cx="224" cy="399" r="2.31481" fill="rgb(0,0,0)" />
	<circle cx="624" cy="536" r="2.65957" fill="rgb(0,0,0)" />
	<circle cx="125" cy="1220" r="4.62963" fill="rgb(0,0,0)" />
	<circle cx="440" cy="339" r="2.46305" fill="rgb(0,0,0)" />
	<circle cx="1132" cy="99" r="2.5641" fill="rgb(0,0,0)" />
	<circle cx="1058" cy="38" r="2.77778" fill="rgb(0,0,0)" />
	<circle cx="287" cy="1217" r="4.7619" fill="rgb(0,0,0)" />
	<circle cx="87" cy="83" r="1.95313" fill="rgb(0,0,0)" />
	<circle cx="730" cy="1216" r="4.34783" fill="rgb(0,0,0)" />
	<circle cx="297" cy="625" r="3.18471" fill="rgb(0,0,0)" />
	<circle cx="770" cy="1067" r="2.57732" fill="rgb(0,0,0)" />
	<circle cx="983" cy="37" r="2.99401" fill="rgb(0,0,0)" />
	<circle cx="160" cy="994" r="4.5045" fill="rgb(0,0,0)" />
	<circle cx="307" cy="541" r="3.06748" fill="rgb(0,0,0)" />
	<circle cx="498" cy="798" r="2.40385" fill="rgb(0,0,0)" />
	<circle cx="195" cy="808" r="2.13675" fill="rgb(0,0,0)" />
	<circle cx="927" cy="603" r="1.74216" fill="rgb(0,0,0)" />
	<circle cx="444" cy="993" r="3.64964" fill="rgb(0,0,0)" />
	<circle cx="618" cy="1151" r="4.34783" fill="rgb(0,0,0)" />
	<circle cx="965" cy="1115" r="3.84615" fill="rgb(0,0,0)" />
	<circle cx="35" cy="1046" r="4.58716" fill="rgb(0,0,0)" />
	<circle cx="85" cy="412" r="2.02429" fill="rgb(0,0,0)" />
	<circle cx="614" cy="446" r="2.71739" fill="rgb(0,0,0)" />
	<circle cx="1084" cy="924" r="2.00803" fill="rgb(0,0,0)" />
	<circle cx="177" cy="245" r="2.04918" fill="rgb(0,0,0)" />
	<circle cx="82" cy="571" r="2.18341" fill="rgb(0,0,0)" />
	<circle cx="515" cy="518" r="2.51256" fill="rgb(0,0,0)" />
	<circle cx="640" cy="1220" r="4.58716" fill="rgb(0,0,0)" />
	<circle cx="326" cy="453" r="2.5641" fill="rgb(0,0,0)" />
	<circle cx="91" cy="1003" r="4.58716" fill="rgb(0,0,0)" />
	<circle cx="544" cy="1216" r="4.54545" fill="rgb(0,0,0)" />
	<circle cx="41" cy="1215" r="4.7619" fill="rgb(0,0,0)" />
	<circle cx="422" cy="883" r="2.89017" fill="rgb(0,0,0)" />
	<circle cx="119" cy="1145" r="4.62963" fill="rgb(0,0,0)" />
	<circle cx="1140" cy="1133" r="3.81679" fill="rgb(0,0,0)" />
	<circle cx="536" cy="1129" r="4.80769" fill="rgb(0,0,0)" />
	<circle cx="875" cy="1110" r="3.81679" fill="rgb(0,0,0)" />
	<circle cx="911" cy="1005" r="3.44828" fill="rgb(0,0,0)" />
	<circle cx="697" cy="847" r="2.68817" fill="rgb(0,0,0)" />
	<circle cx="866" cy="872" r="2.00803" fill="rgb(0,0,0)" />
	<circle cx="1052" cy="114" r="2.7933" fill="rgb(0,0,0)" />
	<circle cx="404" cy="1095" r="3.31126" fill="rgb(0,0,0)" />
	<circle cx="209" cy="539" r="2.5641" fill="rgb(0,0,0)" />
	<circle cx="1147" cy="348" r="2.55102" fill="rgb(0,0,0)" />
	<circle cx="611" cy="1077" r="4.2735" fill="rgb(0,0,0)" />
	<circle cx="74" cy="917" r="2.1097" fill="rgb(0,0,0)" />
	<circle cx="1096" cy="749" r="1.6835" fill="rgb(0,0,0)" />
	<circle cx="653" cy="964" r="2.20264" fill="rgb(0,0,0)" />
	<circle cx="397" cy="561" r="2.73224" fill="rgb(0,0,0)" />
	<circle cx="359" cy="948" r="4.03226" fill="rgb(0,0,0)" />
	<circle cx="690" cy="738" r="2.6178" fill="rgb(0,0,0)" />
	<circle cx="290" cy="256" r="2.47525" fill="rgb(0,0,0)" />
</svg>
