<?xml version="1.0" standalone="no" ?>
<!DOCTYPE svg PUBLIC "-//W3C//DTD SVG 1.1//EN" "http://www.w3.org/Graphics/SVG/1.1/DTD/svg11.dtd">
<svg width="563px" height="600px" xmlns="http://www.w3.org/2000/svg" version="1.1" >
	<circle cx="307" cy="541" r="3.73134" fill="rgb(0,0,0)" />
	<circle cx="541" cy="580" r="4" fill="rgb(0,0,0)" />
	<circle cx="316" cy="383" r="2.43902" fill="rgb(0,0,0)" />
	<circle cx="163" cy="430" r="3.87597" fill="rgb(0,0,0)" />
	<circle cx="20" cy="537" r="4.58716" fill="rgb(0,0,0)" />
	<circle cx="206" cy="380" r="2.6178" fill="rgb(0,0,0)" />
	<circle cx="239" cy="556" r="4.62963" fill="rgb(0,0,0)" />
	<circle cx="432" cy="282" r="1.85874" fill="rgb(0,0,0)" />
	<circle cx="141" cy="293" r="3.33333" fill="rgb(0,0,0)" />
	<circle cx="464" cy="460" r="2.87356" fill="rgb(0,0,0)" />
	<circle cx="410" cy="545" r="3.87597" fill="rgb(0,0,0)" />
	<circle cx="458" cy="501" r="3.64964" fill="rgb(0,0,0)" />
	<circle cx="105" cy="551" r="4.71698" fill="rgb(0,0,0)" />
	<circle cx="150" cy="554" r="4.7619" fill="rgb(0,0,0)" />
	<circle cx="247" cy="5" r="2.63158" fill="rgb(0,0,0)" />
	<circle cx="270" cy="551" r="4.80769" fill="rgb(0,0,0)" />
	<circle cx="165" cy="165" r="2.43902" fill="rgb(0,0,0)" />
	<circle cx="175" cy="346" r="3.04878" fill="rgb(0,0,0)" />
	<circle cx="39" cy="205" r="2.02429" fill="rgb(0,0,0)" />
	<circle cx="367" cy="506" r="2.45098" fill="rgb(0,0,0)" />
	<circle cx="188" cy="467" r="3.93701" fill="rgb(0,0,0)" />
	<circle cx="266" cy="172" r="2.24215" fill="rgb(0,0,0)" />
	<circle cx="453" cy="579" r="3.52113" fill="rgb(0,0,0)" />
	<circle cx="142" cy="255" r="3.04878" fill="rgb(0,0,0)" />
	<circle cx="538" cy="27" r="2.6178" fill="rgb(0,0,0)" />
	<circle cx="91" cy="583" r="4.71698" fill="rgb(0,0,0)" />
	<circle cx="41" cy="443" r="2.20264" fill="rgb(0,0,0)" />
	<circle cx="457" cy="539" r="3.73134" fill="rgb(0,0,0)" />
	<circle cx="109" cy="394" r="2.31481" fill="rgb(0,0,0)" />
	<circle cx="252" cy="585" r="4.54545" fill="rgb(0,0,0)" />
	<circle cx="189" cy="110" r="2.41546" fill="rgb(0,0,0)" />
	<circle cx="406" cy="247" r="2.74725" fill="rgb(0,0,0)" />
	<circle cx="520" cy="356" r="1.67785" fill="rgb(0,0,0)" />
	<circle cx="233" cy="479" r="3.64964" fill="rgb(0,0,0)" />
	<circle cx="86" cy="334" r="2.59067" fill="rgb(0,0,0)" />
	<circle cx="255" cy="223" r="2.57732" fill="rgb(0,0,0)" />
	<circle cx="296" cy="213" r="2.71739" fill="rgb(0,0,0)" />
	<circle cx="214" cy="162" r="2.46305" fill="rgb(0,0,0)" />
	<circle cx="53" cy="516" r="4.62963" fill="rgb(0,0,0)" />
	<circle cx="155" cy="213" r="2.5641" fill="rgb(0,0,0)" />
	<circle cx="496" cy="581" r="4.2735" fill="rgb(0,0,0)" />
	<circle cx="296" cy="258" r="2.65957" fill="rgb(0,0,0)" />
	<circle cx="171" cy="581" r="4.7619" fill="rgb(0,0,0)" />
	<circle cx="108" cy="173" r="2.28311" fill="rgb(0,0,0)" />
	<circle cx="420" cy="509" r="3.87597" fill="rgb(0,0,0)" />
	<circle cx="541" cy="539" r="3.81679" fill="rgb(0,0,0)" />
	<circle cx="340" cy="211" r="1.91571" fill="rgb(0,0,0)" />
	<circle cx="491" cy="22" r="2.84091" fill="rgb(0,0,0)" />
	<circle cx="98" cy="233" r="2.47525" fill="rgb(0,0,0)" />
	<circle cx="189" cy="520" r="3.20513" fill="rgb(0,0,0)" />
	<circle cx="547" cy="136" r="2.60417" fill="rgb(0,0,0)" />
	<circle cx="65" cy="549" r="4.62963" fill="rgb(0,0,0)" />
	<circle cx="296" cy="485" r="2.39234" fill="rgb(0,0,0)" />
	<circle cx="332" cy="580" r="4.54545" fill="rgb(0,0,0)" />
	<circle cx="496" cy="64" r="2.84091" fill="rgb(0,0,0)" />
	<circle cx="141" cy="118" r="2.5" fill="rgb(0,0,0)" />
	<circle cx="34" cy="358" r="1.97628" fill="rgb(0,0,0)" />
	<circle cx="52" cy="582" r="4.62963" fill="rgb(0,0,0)" />
	<circle cx="134" cy="340" r="2.87356" fill="rgb(0,0,0)" />
	<circle cx="277" cy="518" r="4.46429" fill="rgb(0,0,0)" />
	<circle cx="268" cy="433" r="2.45098" fill="rgb(0,0,0)" />
	<circle cx="406" cy="412" r="1.98413" fill="rgb(0,0,0)" />
	<circle cx="160" cy="389" r="3.52113" fill="rgb(0,0,0)" />
	<circle cx="497" cy="500" r="3.18471" fill="rgb(0,0,0)" />
	<circle cx="377" cy="311" r="1.86567" fill="rgb(0,0,0)" />
	<circle cx="370" cy="579" r="4.09836" fill="rgb(0,0,0)" />
	<circle cx="184" cy="261" r="2.74725" fill="rgb(0,0,0)" />
	<circle cx="211" cy="430" r="2.87356" fill="rgb(0,0,0)" />
	<circle cx="131" cy="44" r="1.93798" fill="rgb(0,0,0)" />
	<circle cx="179" cy="304" r="2.99401" fill="rgb(0,0,0)" />
	<circle cx="242" cy="117" r="2.47525" fill="rgb(0,0,0)" />
	<circle cx="27" cy="125" r="2.04918" fill="rgb(0,0,0)" />
	<circle cx="399" cy="116" r="1.70648" fill="rgb(0,0,0)" />
	<circle cx="93" cy="286" r="2.53807" fill="rgb(0,0,0)" />
	<circle cx="297" cy="318" r="2" fill="rgb(0,0,0)" />
	<circle cx="452" cy="18" r="3.04878" fill="rgb(0,0,0)" />
	<circle cx="40" cy="41" r="1.95313" fill="rgb(0,0,0)" />
	<circle cx="329" cy="430" r="2.6738" fill="rgb(0,0,0)" />
	<circle cx="85" cy="112" r="2.03252" fill="rgb(0,0,0)" />
	<circle cx="65" cy="480" r="4.54545" fill="rgb(0,0,0)" />
	<circle cx="118" cy="467" r="2.6455" fill="rgb(0,0,0)" />
	<circle cx="539" cy="496" r="2.97619" fill="rgb(0,0,0)" />
	<circle cx="498" cy="543" r="3.87597" fill="rgb(0,0,0)" />
	<circle cx="130" cy="583" r="4.80769" fill="rgb(0,0,0)" />
	<circle cx="256" cy="385" r="2.41546" fill="rgb(0,0,0)" />
	<circle cx="226" cy="319" r="2.17391" fill="rgb(0,0,0)" />
	<circle cx="243" cy="514" r="4.42478" fill="rgb(0,0,0)" />
	<circle cx="232" cy="262" r="2.41546" fill="rgb(0,0,0)" />
	<circle cx="208" cy="580" r="4.6729" fill="rgb(0,0,0)" />
	<circle cx="206" cy="212" r="2.5" fill="rgb(0,0,0)" />
	<circle cx="36" cy="286" r="2.19298" fill="rgb(0,0,0)" />
	<circle cx="130" cy="526" r="4.7619" fill="rgb(0,0,0)" />
	<circle cx="17" cy="578" r="4.7619" fill="rgb(0,0,0)" />
	<circle cx="20" cy="491" r="4.58716" fill="rgb(0,0,0)" />
	<circle cx="521" cy="440" r="1.98413" fill="rgb(0,0,0)" />
	<circle cx="293" cy="582" r="4.58716" fill="rgb(0,0,0)" />
	<circle cx="92" cy="516" r="4.6729" fill="rgb(0,0,0)" />
	<circle cx="410" cy="581" r="3.81679" fill="rgb(0,0,0)" />
	<circle cx="540" cy="83" r="2.6178" fill="rgb(0,0,0)" />
	<circle cx="424" cy="469" r="3.4965" fill="rgb(0,0,0)" />
</svg>
