<?xml version="1.0" standalone="no" ?>
<!DOCTYPE svg PUBLIC "-//W3C//DTD SVG 1.1//EN" "http://www.w3.org/Graphics/SVG/1.1/DTD/svg11.dtd">
<svg width="567px" height="756px" xmlns="http://www.w3.org/2000/svg" version="1.1" >
	<circle cx="428" cy="463" r="3.22581" fill="rgb(0,0,0)" />
	<circle cx="431" cy="27" r="4.54545" fill="rgb(0,0,0)" />
	<circle cx="67" cy="670" r="4.31034" fill="rgb(0,0,0)" />
	<circle cx="279" cy="105" r="1.8315" fill="rgb(0,0,0)" />
	<circle cx="132" cy="355" r="4.20168" fill="rgb(0,0,0)" />
	<circle cx="106" cy="442" r="4.09836" fill="rgb(0,0,0)" />
	<circle cx="117" cy="680" r="3.84615" fill="rgb(0,0,0)" />
	<circle cx="370" cy="718" r="4.23729" fill="rgb(0,0,0)" />
	<circle cx="26" cy="84" r="5" fill="rgb(0,0,0)" />
	<circle cx="508" cy="505" r="4.09836" fill="rgb(0,0,0)" />
	<circle cx="542" cy="135" r="4.6729" fill="rgb(0,0,0)" />
	<circle cx="25" cy="315" r="4.38596" fill="rgb(0,0,0)" />
	<circle cx="100" cy="506" r="3.93701" fill="rgb(0,0,0)" />
	<circle cx="405" cy="176" r="2.53807" fill="rgb(0,0,0)" />
	<circle cx="178" cy="79" r="4.58716" fill="rgb(0,0,0)" />
	<circle cx="78" cy="91" r="4.58716" fill="rgb(0,0,0)" />
	<circle cx="544" cy="397" r="4.38596" fill="rgb(0,0,0)" />
	<circle cx="378" cy="525" r="2.92398" fill="rgb(0,0,0)" />
	<circle cx="26" cy="27" r="5" fill="rgb(0,0,0)" />
	<circle cx="241" cy="552" r="4.7619" fill="rgb(0,0,0)" />
	<circle cx="73" cy="263" r="4.6729" fill="rgb(0,0,0)" />
	<circle cx="165" cy="421" r="3.47222" fill="rgb(0,0,0)" />
	<circle cx="240" cy="655" r="4.03226" fill="rgb(0,0,0)" />
	<circle cx="485" cy="451" r="4.54545" fill="rgb(0,0,0)" />
	<circle cx="486" cy="23" r="4.58716" fill="rgb(0,0,0)" />
	<circle cx="475" cy="710" r="4.34783" fill="rgb(0,0,0)" />
	<circle cx="500" cy="109" r="4.62963" fill="rgb(0,0,0)" />
	<circle cx="451" cy="513" r="4.5045" fill="rgb(0,0,0)" />
	<circle cx="241" cy="293" r="2.04082" fill="rgb(0,0,0)" />
	<circle cx="166" cy="646" r="3.96825" fill="rgb(0,0,0)" />
	<circle cx="234" cy="499" r="4.58716" fill="rgb(0,0,0)" />
	<circle cx="32" cy="141" r="4.80769" fill="rgb(0,0,0)" />
	<circle cx="143" cy="585" r="3.87597" fill="rgb(0,0,0)" />
	<circle cx="171" cy="515" r="3.4965" fill="rgb(0,0,0)" />
	<circle cx="74" cy="727" r="4" fill="rgb(0,0,0)" />
	<circle cx="198" cy="191" r="3.5461" fill="rgb(0,0,0)" />
	<circle cx="146" cy="203" r="4.54545" fill="rgb(0,0,0)" />
	<circle cx="539" cy="26" r="4.38596" fill="rgb(0,0,0)" />
	<circle cx="23" cy="667" r="4" fill="rgb(0,0,0)" />
	<circle cx="23" cy="536" r="4.46429" fill="rgb(0,0,0)" />
	<circle cx="482" cy="344" r="3.87597" fill="rgb(0,0,0)" />
	<circle cx="30" cy="605" r="3.5461" fill="rgb(0,0,0)" />
	<circle cx="79" cy="324" r="4.6729" fill="rgb(0,0,0)" />
	<circle cx="212" cy="595" r="4.09836" fill="rgb(0,0,0)" />
	<circle cx="77" cy="564" r="3.4965" fill="rgb(0,0,0)" />
	<circle cx="450" cy="117" r="4.5045" fill="rgb(0,0,0)" />
	<circle cx="541" cy="652" r="4.71698" fill="rgb(0,0,0)" />
	<circle cx="541" cy="77" r="4.58716" fill="rgb(0,0,0)" />
	<circle cx="421" cy="725" r="4.38596" fill="rgb(0,0,0)" />
	<circle cx="429" cy="649" r="3.96825" fill="rgb(0,0,0)" />
	<circle cx="136" cy="730" r="4.06504" fill="rgb(0,0,0)" />
	<circle cx="201" cy="733" r="4.38596" fill="rgb(0,0,0)" />
	<circle cx="313" cy="439" r="2.21239" fill="rgb(0,0,0)" />
	<circle cx="392" cy="293" r="1.9084" fill="rgb(0,0,0)" />
	<circle cx="77" cy="29" r="5" fill="rgb(0,0,0)" />
	<circle cx="364" cy="650" r="3.7594" fill="rgb(0,0,0)" />
	<circle cx="477" cy="239" r="3.84615" fill="rgb(0,0,0)" />
	<circle cx="301" cy="652" r="4.2735" fill="rgb(0,0,0)" />
	<circle cx="314" cy="718" r="3.57143" fill="rgb(0,0,0)" />
	<circle cx="155" cy="140" r="4.7619" fill="rgb(0,0,0)" />
	<circle cx="81" cy="201" r="4.62963" fill="rgb(0,0,0)" />
	<circle cx="494" cy="197" r="4.6729" fill="rgb(0,0,0)" />
	<circle cx="308" cy="16" r="3.22581" fill="rgb(0,0,0)" />
	<circle cx="443" cy="402" r="2.6738" fill="rgb(0,0,0)" />
	<circle cx="282" cy="592" r="4.7619" fill="rgb(0,0,0)" />
	<circle cx="538" cy="342" r="4.42478" fill="rgb(0,0,0)" />
	<circle cx="404" cy="589" r="4" fill="rgb(0,0,0)" />
	<circle cx="256" cy="722" r="4.09836" fill="rgb(0,0,0)" />
	<circle cx="536" cy="555" r="4" fill="rgb(0,0,0)" />
	<circle cx="24" cy="727" r="4.31034" fill="rgb(0,0,0)" />
	<circle cx="543" cy="289" r="4.71698" fill="rgb(0,0,0)" />
	<circle cx="101" cy="627" r="4.16667" fill="rgb(0,0,0)" />
	<circle cx="225" cy="439" r="4.34783" fill="rgb(0,0,0)" />
	<circle cx="457" cy="568" r="4.2735" fill="rgb(0,0,0)" />
	<circle cx="542" cy="456" r="4.46429" fill="rgb(0,0,0)" />
	<circle cx="415" cy="81" r="4" fill="rgb(0,0,0)" />
	<circle cx="297" cy="525" r="4.7619" fill="rgb(0,0,0)" />
	<circle cx="186" cy="26" r="4.90196" fill="rgb(0,0,0)" />
	<circle cx="186" cy="694" r="4.23729" fill="rgb(0,0,0)" />
	<circle cx="36" cy="461" r="3.87597" fill="rgb(0,0,0)" />
	<circle cx="130" cy="93" r="4.90196" fill="rgb(0,0,0)" />
	<circle cx="131" cy="33" r="4.46429" fill="rgb(0,0,0)" />
	<circle cx="141" cy="277" r="3.84615" fill="rgb(0,0,0)" />
	<circle cx="237" cy="20" r="3.90625" fill="rgb(0,0,0)" />
	<circle cx="23" cy="250" r="4.71698" fill="rgb(0,0,0)" />
	<circle cx="498" cy="622" r="4.20168" fill="rgb(0,0,0)" />
	<circle cx="193" cy="365" r="4.38596" fill="rgb(0,0,0)" />
	<circle cx="534" cy="722" r="4.54545" fill="rgb(0,0,0)" />
	<circle cx="476" cy="68" r="4.6729" fill="rgb(0,0,0)" />
	<circle cx="378" cy="26" r="4.16667" fill="rgb(0,0,0)" />
	<circle cx="27" cy="385" r="4.03226" fill="rgb(0,0,0)" />
	<circle cx="339" cy="584" r="3.64964" fill="rgb(0,0,0)" />
	<circle cx="485" cy="156" r="4.62963" fill="rgb(0,0,0)" />
	<circle cx="492" cy="292" r="4.16667" fill="rgb(0,0,0)" />
	<circle cx="542" cy="186" r="4.6729" fill="rgb(0,0,0)" />
	<circle cx="538" cy="238" r="4.6729" fill="rgb(0,0,0)" />
	<circle cx="26" cy="194" r="4.85437" fill="rgb(0,0,0)" />
	<circle cx="498" cy="399" r="4.71698" fill="rgb(0,0,0)" />
	<circle cx="96" cy="148" r="4.9505" fill="rgb(0,0,0)" />
	<circle cx="82" cy="384" r="4.71698" fill="rgb(0,0,0)" />
</svg>
