<?xml version="1.0" ?>
<!DOCTYPE svg PUBLIC "-//W3C//DTD SVG 1.1//EN" "http://www.w3.org/Graphics/SVG/1.1/DTD/svg11.dtd">
<svg width="600" height="965" version="1.1" xmlns="http://www.w3.org/2000/svg">
<circle cx="363.62" cy="152.886" r="7.05538" fill="rgb(0,0,0)" />
<circle cx="270.896" cy="141.978" r="11.7893" fill="rgb(0,0,0)" />
<circle cx="408.325" cy="173.46" r="9.49987" fill="rgb(0,0,0)" />
<circle cx="171.737" cy="182.862" r="17.3498" fill="rgb(0,0,0)" />
<circle cx="359.801" cy="201.006" r="19.352" fill="rgb(0,0,0)" />
<circle cx="129.308" cy="213.727" r="11.5274" fill="rgb(0,0,0)" />
<circle cx="311.654" cy="207.422" r="21.7673" fill="rgb(0,0,0)" />
<circle cx="237.207" cy="252.204" r="16.8465" fill="rgb(0,0,0)" />
<circle cx="316.627" cy="153.524" r="17.3046" fill="rgb(0,0,0)" />
<circle cx="345.989" cy="254.014" r="18.6775" fill="rgb(0,0,0)" />
<circle cx="152.332" cy="266.75" r="18.6895" fill="rgb(0,0,0)" />
<circle cx="206.057" cy="289.367" r="18.7026" fill="rgb(0,0,0)" />
<circle cx="367.91" cy="301.249" r="19.5718" fill="rgb(0,0,0)" />
<circle cx="119.159" cy="306.816" r="18.1407" fill="rgb(0,0,0)" />
<circle cx="261.454" cy="302.267" r="22.0548" fill="rgb(0,0,0)" />
<circle cx="174.642" cy="324.417" r="19.4425" fill="rgb(0,0,0)" />
<circle cx="427.175" cy="328.031" r="17.3413" fill="rgb(0,0,0)" />
<circle cx="236.174" cy="343.412" r="23.5011" fill="rgb(0,0,0)" />
<circle cx="190.397" cy="229.522" r="19.0328" fill="rgb(0,0,0)" />
<circle cx="491.486" cy="315.898" r="13.7555" fill="rgb(0,0,0)" />
<circle cx="497.469" cy="234.641" r="16.2902" fill="rgb(0,0,0)" />
<circle cx="323.792" cy="345.89" r="20.573" fill="rgb(0,0,0)" />
<circle cx="90.2535" cy="354.406" r="19.4918" fill="rgb(0,0,0)" />
<circle cx="377.42" cy="354.729" r="19.6451" fill="rgb(0,0,0)" />
<circle cx="138.961" cy="360.859" r="18.4351" fill="rgb(0,0,0)" />
<circle cx="241.487" cy="198.708" r="19.295" fill="rgb(0,0,0)" />
<circle cx="194.611" cy="375.989" r="17.979" fill="rgb(0,0,0)" />
<circle cx="417.34" cy="282.552" r="23.7762" fill="rgb(0,0,0)" />
<circle cx="436.381" cy="379.35" r="13.5823" fill="rgb(0,0,0)" />
<circle cx="155.013" cy="407.883" r="16.4571" fill="rgb(0,0,0)" />
<circle cx="100.529" cy="408.453" r="20.563" fill="rgb(0,0,0)" />
<circle cx="498.934" cy="399.522" r="21.6127" fill="rgb(0,0,0)" />
<circle cx="246.109" cy="396.108" r="18.7506" fill="rgb(0,0,0)" />
<circle cx="284.359" cy="425.684" r="29.9803" fill="rgb(0,0,0)" />
<circle cx="146.116" cy="454.279" r="19.6102" fill="rgb(0,0,0)" />
<circle cx="433.348" cy="450.945" r="22.0872" fill="rgb(0,0,0)" />
<circle cx="97.7244" cy="461.016" r="16.4953" fill="rgb(0,0,0)" />
<circle cx="320.281" cy="462.288" r="22.2554" fill="rgb(0,0,0)" />
<circle cx="390.496" cy="407.131" r="18.3678" fill="rgb(0,0,0)" />
<circle cx="487.554" cy="459.785" r="20.1593" fill="rgb(0,0,0)" />
<circle cx="187.364" cy="487.225" r="22.0878" fill="rgb(0,0,0)" />
<circle cx="265.959" cy="477.793" r="18.6654" fill="rgb(0,0,0)" />
<circle cx="130.2" cy="505.099" r="17.9166" fill="rgb(0,0,0)" />
<circle cx="284.072" cy="368.774" r="26.8765" fill="rgb(0,0,0)" />
<circle cx="334.292" cy="403.733" r="22.3109" fill="rgb(0,0,0)" />
<circle cx="407.062" cy="500.846" r="17.684" fill="rgb(0,0,0)" />
<circle cx="355.05" cy="509.681" r="20.9705" fill="rgb(0,0,0)" />
<circle cx="304.339" cy="513.919" r="22.5949" fill="rgb(0,0,0)" />
<circle cx="456.361" cy="514.928" r="21.8625" fill="rgb(0,0,0)" />
<circle cx="163.572" cy="544.093" r="18.5884" fill="rgb(0,0,0)" />
<circle cx="268.907" cy="543.883" r="18.2526" fill="rgb(0,0,0)" />
<circle cx="398.328" cy="558.126" r="22.3553" fill="rgb(0,0,0)" />
<circle cx="200.825" cy="436.834" r="19.5425" fill="rgb(0,0,0)" />
<circle cx="333.92" cy="560.912" r="19.4044" fill="rgb(0,0,0)" />
<circle cx="450.391" cy="195.281" r="12.5513" fill="rgb(0,0,0)" />
<circle cx="205.892" cy="585.021" r="16.5143" fill="rgb(0,0,0)" />
<circle cx="288.074" cy="603.342" r="18.2101" fill="rgb(0,0,0)" />
<circle cx="208.02" cy="645.007" r="10.5637" fill="rgb(0,0,0)" />
<circle cx="540.822" cy="306.536" r="14.4447" fill="rgb(0,0,0)" />
<circle cx="93.1697" cy="252.664" r="5.76762" fill="rgb(0,0,0)" />
<circle cx="157.457" cy="597.244" r="18.3032" fill="rgb(0,0,0)" />
<circle cx="356.976" cy="703.651" r="10.2928" fill="rgb(0,0,0)" />
<circle cx="249.728" cy="720.897" r="14.6709" fill="rgb(0,0,0)" />
<circle cx="205.906" cy="790.789" r="10.4177" fill="rgb(0,0,0)" />
<circle cx="213.217" cy="153.588" r="16.3233" fill="rgb(0,0,0)" />
<circle cx="423.529" cy="605.186" r="15.0463" fill="rgb(0,0,0)" />
<circle cx="210.273" cy="529.292" r="16.0708" fill="rgb(0,0,0)" />
<circle cx="545.152" cy="358.535" r="15.6683" fill="rgb(0,0,0)" />
<circle cx="160.689" cy="855.77" r="11.9128" fill="rgb(0,0,0)" />
<circle cx="398.93" cy="232.007" r="22.8671" fill="rgb(0,0,0)" />
<circle cx="392.965" cy="830.218" r="11.5297" fill="rgb(0,0,0)" />
<circle cx="111.532" cy="558.002" r="14.7319" fill="rgb(0,0,0)" />
<circle cx="385.68" cy="766.217" r="8.35712" fill="rgb(0,0,0)" />
<circle cx="471.483" cy="569.128" r="13.9213" fill="rgb(0,0,0)" />
<circle cx="365.528" cy="621.881" r="17.9687" fill="rgb(0,0,0)" />
<circle cx="130.769" cy="755.318" r="4.67901" fill="rgb(0,0,0)" />
<circle cx="75.6001" cy="510.982" r="6.59351" fill="rgb(0,0,0)" />
<circle cx="371.106" cy="454.69" r="20.1877" fill="rgb(0,0,0)" />
<circle cx="66.5673" cy="938.21" r="13.9012" fill="rgb(0,0,0)" />
<circle cx="159.48" cy="924.316" r="20.2672" fill="rgb(0,0,0)" />
<circle cx="514.079" cy="521.639" r="7.06045" fill="rgb(0,0,0)" />
<circle cx="190.207" cy="713.17" r="20.8999" fill="rgb(0,0,0)" />
<circle cx="258.012" cy="933.723" r="16.7577" fill="rgb(0,0,0)" />
<circle cx="343.841" cy="913.376" r="15.2157" fill="rgb(0,0,0)" />
<circle cx="283.683" cy="242.047" r="18.9631" fill="rgb(0,0,0)" />
<circle cx="431.205" cy="902.333" r="3.73593" fill="rgb(0,0,0)" />
<circle cx="51.4361" cy="455.84" r="11.054" fill="rgb(0,0,0)" />
<circle cx="170.627" cy="86.8594" r="5.07996" fill="rgb(0,0,0)" />
<circle cx="227.835" cy="86.6982" r="6.98467" fill="rgb(0,0,0)" />
<circle cx="307.399" cy="298.24" r="22.1802" fill="rgb(0,0,0)" />
<circle cx="64.9893" cy="298.597" r="8.75221" fill="rgb(0,0,0)" />
<circle cx="447.126" cy="248.37" r="18.6351" fill="rgb(0,0,0)" />
<circle cx="46.6731" cy="402.178" r="13.785" fill="rgb(0,0,0)" />
<circle cx="45.0656" cy="349.022" r="9.3536" fill="rgb(0,0,0)" />
<circle cx="541.33" cy="467.957" r="13.4704" fill="rgb(0,0,0)" />
<circle cx="553.485" cy="413.255" r="11.5431" fill="rgb(0,0,0)" />
<circle cx="294.019" cy="657.699" r="15.1337" fill="rgb(0,0,0)" />
<circle cx="247.033" cy="859.279" r="8.44632" fill="rgb(0,0,0)" />
<circle cx="542.972" cy="246.826" r="7.57733" fill="rgb(0,0,0)" />
<circle cx="513.056" cy="180.153" r="2.58735" fill="rgb(0,0,0)" />
</svg>
