<?xml version="1.0" standalone="no" ?>
<!DOCTYPE svg PUBLIC "-//W3C//DTD SVG 1.1//EN" "http://www.w3.org/Graphics/SVG/1.1/DTD/svg11.dtd">
<svg width="600px" height="965px" xmlns="http://www.w3.org/2000/svg" version="1.1" >
	<circle cx="114" cy="439" r="2.48756" fill="rgb(101,101,101)" />
	<circle cx="368" cy="358" r="2.34742" fill="rgb(113,113,113)" />
	<circle cx="201" cy="223" r="2.48756" fill="rgb(101,101,101)" />
	<circle cx="282" cy="514" r="2.84091" fill="rgb(76,76,76)" />
	<circle cx="266" cy="484" r="2.31481" fill="rgb(116,116,116)" />
	<circle cx="418" cy="603" r="2.48756" fill="rgb(101,101,101)" />
	<circle cx="388" cy="458" r="2.5" fill="rgb(100,100,100)" />
	<circle cx="497" cy="527" r="2.48756" fill="rgb(101,101,101)" />
	<circle cx="523" cy="443" r="2.48756" fill="rgb(101,101,101)" />
	<circle cx="248" cy="367" r="3.04878" fill="rgb(64,64,64)" />
	<circle cx="92" cy="307" r="2.48756" fill="rgb(101,101,101)" />
	<circle cx="310" cy="385" r="2.6738" fill="rgb(87,87,87)" />
	<circle cx="70" cy="470" r="2.48756" fill="rgb(101,101,101)" />
	<circle cx="232" cy="557" r="1.79211" fill="rgb(179,179,179)" />
	<circle cx="323" cy="355" r="2.53807" fill="rgb(97,97,97)" />
	<circle cx="261" cy="524" r="2.33645" fill="rgb(114,114,114)" />
	<circle cx="372" cy="624" r="2.45098" fill="rgb(104,104,104)" />
	<circle cx="139" cy="539" r="2.48756" fill="rgb(101,101,101)" />
	<circle cx="187" cy="473" r="2.48756" fill="rgb(101,101,101)" />
	<circle cx="131" cy="351" r="2.48756" fill="rgb(101,101,101)" />
	<circle cx="345" cy="388" r="2.41546" fill="rgb(107,107,107)" />
	<circle cx="238" cy="400" r="2.45098" fill="rgb(104,104,104)" />
	<circle cx="245" cy="294" r="2.53807" fill="rgb(97,97,97)" />
	<circle cx="126" cy="392" r="2.5" fill="rgb(100,100,100)" />
	<circle cx="409" cy="497" r="2.48756" fill="rgb(101,101,101)" />
	<circle cx="356" cy="423" r="2.51256" fill="rgb(99,99,99)" />
	<circle cx="212" cy="415" r="2.14592" fill="rgb(133,133,133)" />
	<circle cx="485" cy="477" r="2.48756" fill="rgb(101,101,101)" />
	<circle cx="384" cy="550" r="2.48756" fill="rgb(101,101,101)" />
	<circle cx="280" cy="454" r="2.65957" fill="rgb(88,88,88)" />
	<circle cx="413" cy="361" r="2.31481" fill="rgb(116,116,116)" />
	<circle cx="417" cy="243" r="2.48756" fill="rgb(101,101,101)" />
	<circle cx="106" cy="261" r="2.5" fill="rgb(100,100,100)" />
	<circle cx="260" cy="426" r="1.51976" fill="rgb(229,229,229)" />
	<circle cx="247" cy="233" r="2.46305" fill="rgb(103,103,103)" />
	<circle cx="258" cy="393" r="2.97619" fill="rgb(68,68,68)" />
	<circle cx="93" cy="362" r="2.5" fill="rgb(100,100,100)" />
	<circle cx="207" cy="347" r="2.5" fill="rgb(100,100,100)" />
	<circle cx="390" cy="293" r="2.38095" fill="rgb(110,110,110)" />
	<circle cx="183" cy="435" r="2.48756" fill="rgb(101,101,101)" />
	<circle cx="281" cy="328" r="2.6455" fill="rgb(89,89,89)" />
	<circle cx="542" cy="325" r="2.48756" fill="rgb(101,101,101)" />
	<circle cx="450" cy="523" r="2.48756" fill="rgb(101,101,101)" />
	<circle cx="333" cy="506" r="2.94118" fill="rgb(70,70,70)" />
	<circle cx="151" cy="415" r="2.48756" fill="rgb(101,101,101)" />
	<circle cx="108" cy="477" r="2.48756" fill="rgb(101,101,101)" />
	<circle cx="293" cy="483" r="3.18471" fill="rgb(57,57,57)" />
	<circle cx="292" cy="611" r="2.18341" fill="rgb(129,129,129)" />
	<circle cx="200" cy="182" r="2.48756" fill="rgb(101,101,101)" />
	<circle cx="140" cy="575" r="2.48756" fill="rgb(101,101,101)" />
	<circle cx="477" cy="376" r="2.01613" fill="rgb(148,148,148)" />
	<circle cx="158" cy="262" r="2.5" fill="rgb(100,100,100)" />
	<circle cx="175" cy="507" r="2.48756" fill="rgb(101,101,101)" />
	<circle cx="350" cy="454" r="2.59067" fill="rgb(93,93,93)" />
	<circle cx="189" cy="307" r="2.48756" fill="rgb(101,101,101)" />
	<circle cx="416" cy="444" r="2.42718" fill="rgb(106,106,106)" />
	<circle cx="125" cy="510" r="2.48756" fill="rgb(101,101,101)" />
	<circle cx="384" cy="407" r="2.43902" fill="rgb(105,105,105)" />
	<circle cx="546" cy="368" r="2.48756" fill="rgb(101,101,101)" />
	<circle cx="267" cy="422" r="2.68817" fill="rgb(86,86,86)" />
	<circle cx="168" cy="351" r="2.48756" fill="rgb(101,101,101)" />
	<circle cx="280" cy="366" r="2.94118" fill="rgb(70,70,70)" />
	<circle cx="239" cy="340" r="3.06748" fill="rgb(63,63,63)" />
	<circle cx="148" cy="484" r="2.48756" fill="rgb(101,101,101)" />
	<circle cx="362" cy="229" r="2.48756" fill="rgb(101,101,101)" />
	<circle cx="87" cy="410" r="2.48756" fill="rgb(101,101,101)" />
	<circle cx="57" cy="334" r="2.48756" fill="rgb(101,101,101)" />
	<circle cx="371" cy="583" r="2.48756" fill="rgb(101,101,101)" />
	<circle cx="541" cy="408" r="2.48756" fill="rgb(101,101,101)" />
	<circle cx="339" cy="314" r="2.30415" fill="rgb(117,117,117)" />
	<circle cx="334" cy="478" r="2.71739" fill="rgb(84,84,84)" />
	<circle cx="148" cy="216" r="2.48756" fill="rgb(101,101,101)" />
	<circle cx="283" cy="551" r="2.46305" fill="rgb(103,103,103)" />
	<circle cx="469" cy="570" r="2.48756" fill="rgb(101,101,101)" />
	<circle cx="207" cy="266" r="2.48756" fill="rgb(101,101,101)" />
	<circle cx="306" cy="255" r="2.41546" fill="rgb(107,107,107)" />
	<circle cx="324" cy="416" r="2.68817" fill="rgb(86,86,86)" />
	<circle cx="308" cy="467" r="2.92398" fill="rgb(71,71,71)" />
	<circle cx="52" cy="431" r="2.48756" fill="rgb(101,101,101)" />
	<circle cx="289" cy="813" r="1.71821" fill="rgb(191,191,191)" />
	<circle cx="190" cy="534" r="2.41546" fill="rgb(107,107,107)" />
	<circle cx="394" cy="188" r="2.48756" fill="rgb(101,101,101)" />
	<circle cx="428" cy="563" r="2.5" fill="rgb(100,100,100)" />
	<circle cx="90" cy="521" r="2.48756" fill="rgb(101,101,101)" />
	<circle cx="314" cy="443" r="2.84091" fill="rgb(76,76,76)" />
	<circle cx="51" cy="382" r="2.48756" fill="rgb(101,101,101)" />
	<circle cx="400" cy="523" r="2.48756" fill="rgb(101,101,101)" />
	<circle cx="295" cy="417" r="3.01205" fill="rgb(66,66,66)" />
	<circle cx="306" cy="504" r="3.47222" fill="rgb(44,44,44)" />
	<circle cx="530" cy="487" r="2.48756" fill="rgb(101,101,101)" />
	<circle cx="442" cy="479" r="2.48756" fill="rgb(101,101,101)" />
	<circle cx="151" cy="450" r="2.48756" fill="rgb(101,101,101)" />
	<circle cx="182" cy="565" r="2.46305" fill="rgb(103,103,103)" />
	<circle cx="175" cy="390" r="2.5" fill="rgb(100,100,100)" />
	<circle cx="488" cy="242" r="1.99203" fill="rgb(151,151,151)" />
	<circle cx="361" cy="508" r="2.53807" fill="rgb(97,97,97)" />
	<circle cx="319" cy="533" r="3.14465" fill="rgb(59,59,59)" />
	<circle cx="283" cy="393" r="3.06748" fill="rgb(63,63,63)" />
	<circle cx="181" cy="603" r="2.42718" fill="rgb(106,106,106)" />
	<circle cx="142" cy="307" r="2.5" fill="rgb(100,100,100)" />
</svg>
