<?xml version="1.0" standalone="no" ?>
<!DOCTYPE svg PUBLIC "-//W3C//DTD SVG 1.1//EN" "http://www.w3.org/Graphics/SVG/1.1/DTD/svg11.dtd">
<svg width="671px" height="433px" xmlns="http://www.w3.org/2000/svg" version="1.1" >
	<circle cx="574" cy="95" r="1.89394" fill="rgb(0,0,0)" />
	<circle cx="456" cy="152" r="2.06612" fill="rgb(0,0,0)" />
	<circle cx="187" cy="145" r="2.29358" fill="rgb(0,0,0)" />
	<circle cx="271" cy="139" r="2.41546" fill="rgb(0,0,0)" />
	<circle cx="445" cy="98" r="1.88679" fill="rgb(0,0,0)" />
	<circle cx="253" cy="155" r="2.18341" fill="rgb(0,0,0)" />
	<circle cx="226" cy="146" r="2.18341" fill="rgb(0,0,0)" />
	<circle cx="475" cy="158" r="1.96078" fill="rgb(0,0,0)" />
	<circle cx="462" cy="177" r="2.10084" fill="rgb(0,0,0)" />
	<circle cx="194" cy="124" r="2.1645" fill="rgb(0,0,0)" />
	<circle cx="540" cy="81" r="1.92308" fill="rgb(0,0,0)" />
	<circle cx="580" cy="117" r="1.92308" fill="rgb(0,0,0)" />
	<circle cx="520" cy="161" r="1.90114" fill="rgb(0,0,0)" />
	<circle cx="234" cy="111" r="2.22222" fill="rgb(0,0,0)" />
	<circle cx="494" cy="106" r="2.03252" fill="rgb(0,0,0)" />
	<circle cx="168" cy="152" r="2.21239" fill="rgb(0,0,0)" />
	<circle cx="401" cy="277" r="2.40385" fill="rgb(0,0,0)" />
	<circle cx="483" cy="86" r="2.12766" fill="rgb(0,0,0)" />
	<circle cx="338" cy="163" r="2.51256" fill="rgb(0,0,0)" />
	<circle cx="123" cy="157" r="2.02429" fill="rgb(0,0,0)" />
	<circle cx="146" cy="242" r="1.83824" fill="rgb(0,0,0)" />
	<circle cx="471" cy="106" r="2.13675" fill="rgb(0,0,0)" />
	<circle cx="167" cy="195" r="1.99203" fill="rgb(0,0,0)" />
	<circle cx="439" cy="174" r="2.11864" fill="rgb(0,0,0)" />
	<circle cx="148" cy="160" r="2.05761" fill="rgb(0,0,0)" />
	<circle cx="310" cy="84" r="1.49254" fill="rgb(0,0,0)" />
	<circle cx="266" cy="60" r="1.8797" fill="rgb(0,0,0)" />
	<circle cx="476" cy="129" r="2.00803" fill="rgb(0,0,0)" />
	<circle cx="394" cy="131" r="2.14592" fill="rgb(0,0,0)" />
	<circle cx="509" cy="56" r="2.03252" fill="rgb(0,0,0)" />
	<circle cx="530" cy="126" r="2.00803" fill="rgb(0,0,0)" />
	<circle cx="236" cy="191" r="2.04918" fill="rgb(0,0,0)" />
	<circle cx="474" cy="46" r="1.95313" fill="rgb(0,0,0)" />
	<circle cx="207" cy="139" r="2.27273" fill="rgb(0,0,0)" />
	<circle cx="216" cy="121" r="2.24215" fill="rgb(0,0,0)" />
	<circle cx="176" cy="250" r="1.78571" fill="rgb(0,0,0)" />
	<circle cx="410" cy="107" r="2.05761" fill="rgb(0,0,0)" />
	<circle cx="379" cy="202" r="2.17391" fill="rgb(0,0,0)" />
	<circle cx="294" cy="142" r="2.27273" fill="rgb(0,0,0)" />
	<circle cx="409" cy="150" r="2.22222" fill="rgb(0,0,0)" />
	<circle cx="558" cy="53" r="1.95313" fill="rgb(0,0,0)" />
	<circle cx="270" cy="118" r="2" fill="rgb(0,0,0)" />
	<circle cx="520" cy="106" r="2.01613" fill="rgb(0,0,0)" />
	<circle cx="575" cy="71" r="1.94553" fill="rgb(0,0,0)" />
	<circle cx="509" cy="81" r="1.93798" fill="rgb(0,0,0)" />
	<circle cx="422" cy="127" r="2.18341" fill="rgb(0,0,0)" />
	<circle cx="450" cy="126" r="2.02429" fill="rgb(0,0,0)" />
	<circle cx="260" cy="196" r="2.10084" fill="rgb(0,0,0)" />
	<circle cx="507" cy="192" r="1.48368" fill="rgb(0,0,0)" />
	<circle cx="547" cy="105" r="2" fill="rgb(0,0,0)" />
	<circle cx="209" cy="170" r="2.15517" fill="rgb(0,0,0)" />
	<circle cx="435" cy="61" r="1.84502" fill="rgb(0,0,0)" />
	<circle cx="213" cy="191" r="2.02429" fill="rgb(0,0,0)" />
	<circle cx="432" cy="283" r="1.92308" fill="rgb(0,0,0)" />
	<circle cx="303" cy="286" r="1.97628" fill="rgb(0,0,0)" />
	<circle cx="552" cy="125" r="1.9685" fill="rgb(0,0,0)" />
	<circle cx="187" cy="164" r="2.1645" fill="rgb(0,0,0)" />
	<circle cx="386" cy="221" r="2.24215" fill="rgb(0,0,0)" />
	<circle cx="362" cy="144" r="2.24215" fill="rgb(0,0,0)" />
	<circle cx="398" cy="169" r="2.41546" fill="rgb(0,0,0)" />
	<circle cx="355" cy="191" r="2.5641" fill="rgb(0,0,0)" />
	<circle cx="502" cy="212" r="1.74216" fill="rgb(0,0,0)" />
	<circle cx="357" cy="169" r="2.34742" fill="rgb(0,0,0)" />
	<circle cx="101" cy="165" r="2.03252" fill="rgb(0,0,0)" />
	<circle cx="474" cy="70" r="1.9685" fill="rgb(0,0,0)" />
	<circle cx="500" cy="127" r="2.07469" fill="rgb(0,0,0)" />
	<circle cx="311" cy="254" r="2.20264" fill="rgb(0,0,0)" />
	<circle cx="338" cy="104" r="2.28311" fill="rgb(0,0,0)" />
	<circle cx="139" cy="174" r="2.04918" fill="rgb(0,0,0)" />
	<circle cx="419" cy="169" r="2.25225" fill="rgb(0,0,0)" />
	<circle cx="279" cy="159" r="2.27273" fill="rgb(0,0,0)" />
	<circle cx="365" cy="207" r="2.47525" fill="rgb(0,0,0)" />
	<circle cx="397" cy="240" r="1.94553" fill="rgb(0,0,0)" />
	<circle cx="334" cy="125" r="2.6178" fill="rgb(0,0,0)" />
	<circle cx="272" cy="178" r="2.36967" fill="rgb(0,0,0)" />
	<circle cx="519" cy="139" r="1.97628" fill="rgb(0,0,0)" />
	<circle cx="147" cy="141" r="2.12766" fill="rgb(0,0,0)" />
	<circle cx="245" cy="132" r="2.12766" fill="rgb(0,0,0)" />
	<circle cx="340" cy="142" r="2.65957" fill="rgb(0,0,0)" />
	<circle cx="319" cy="140" r="2.46305" fill="rgb(0,0,0)" />
	<circle cx="433" cy="149" r="2.10084" fill="rgb(0,0,0)" />
	<circle cx="181" cy="202" r="2.05761" fill="rgb(0,0,0)" />
	<circle cx="252" cy="174" r="2.23214" fill="rgb(0,0,0)" />
	<circle cx="230" cy="167" r="2.1097" fill="rgb(0,0,0)" />
	<circle cx="376" cy="182" r="2.32558" fill="rgb(0,0,0)" />
	<circle cx="381" cy="160" r="2.33645" fill="rgb(0,0,0)" />
	<circle cx="409" cy="267" r="1.78571" fill="rgb(0,0,0)" />
	<circle cx="336" cy="188" r="2.38095" fill="rgb(0,0,0)" />
	<circle cx="307" cy="342" r="2.04082" fill="rgb(0,0,0)" />
	<circle cx="253" cy="94" r="1.95313" fill="rgb(0,0,0)" />
	<circle cx="534" cy="53" r="2" fill="rgb(0,0,0)" />
	<circle cx="220" cy="272" r="1.74825" fill="rgb(0,0,0)" />
	<circle cx="238" cy="254" r="1.51976" fill="rgb(0,0,0)" />
	<circle cx="412" cy="78" r="1.96078" fill="rgb(0,0,0)" />
	<circle cx="277" cy="79" r="1.88679" fill="rgb(0,0,0)" />
	<circle cx="171" cy="132" r="2.10084" fill="rgb(0,0,0)" />
	<circle cx="204" cy="154" r="2.25225" fill="rgb(0,0,0)" />
	<circle cx="192" cy="185" r="2.06612" fill="rgb(0,0,0)" />
	<circle cx="168" cy="174" r="2.10084" fill="rgb(0,0,0)" />
	<circle cx="248" cy="216" r="2.04082" fill="rgb(0,0,0)" />
</svg>
