<?xml version="1.0" standalone="no" ?>
<!DOCTYPE svg PUBLIC "-//W3C//DTD SVG 1.1//EN" "http://www.w3.org/Graphics/SVG/1.1/DTD/svg11.dtd">
<svg width="454px" height="832px" xmlns="http://www.w3.org/2000/svg" version="1.1" >
	<circle cx="249" cy="653" r="1.86567" fill="rgb(0,0,0)" />
	<circle cx="58" cy="350" r="2.04918" fill="rgb(0,0,0)" />
	<circle cx="372" cy="820" r="1.81159" fill="rgb(0,0,0)" />
	<circle cx="327" cy="341" r="4.90196" fill="rgb(0,0,0)" />
	<circle cx="185" cy="615" r="1.51515" fill="rgb(0,0,0)" />
	<circle cx="257" cy="428" r="2.26244" fill="rgb(0,0,0)" />
	<circle cx="308" cy="336" r="4.46429" fill="rgb(0,0,0)" />
	<circle cx="58" cy="414" r="2.74725" fill="rgb(0,0,0)" />
	<circle cx="64" cy="272" r="1.85185" fill="rgb(0,0,0)" />
	<circle cx="192" cy="553" r="2.95858" fill="rgb(0,0,0)" />
	<circle cx="239" cy="195" r="4.9505" fill="rgb(0,0,0)" />
	<circle cx="242" cy="92" r="4.90196" fill="rgb(0,0,0)" />
	<circle cx="104" cy="205" r="4.6729" fill="rgb(0,0,0)" />
	<circle cx="240" cy="365" r="1.84502" fill="rgb(0,0,0)" />
	<circle cx="382" cy="814" r="1.78571" fill="rgb(0,0,0)" />
	<circle cx="214" cy="184" r="1.44509" fill="rgb(0,0,0)" />
	<circle cx="130" cy="711" r="1.43678" fill="rgb(0,0,0)" />
	<circle cx="148" cy="686" r="2.20264" fill="rgb(0,0,0)" />
	<circle cx="307" cy="412" r="4.34783" fill="rgb(0,0,0)" />
	<circle cx="136" cy="678" r="2.27273" fill="rgb(0,0,0)" />
	<circle cx="147" cy="698" r="1.9685" fill="rgb(0,0,0)" />
	<circle cx="172" cy="319" r="2.26244" fill="rgb(0,0,0)" />
	<circle cx="159" cy="679" r="2.13675" fill="rgb(0,0,0)" />
	<circle cx="63" cy="291" r="1.8797" fill="rgb(0,0,0)" />
	<circle cx="363" cy="815" r="1.74825" fill="rgb(0,0,0)" />
	<circle cx="144" cy="599" r="2.24215" fill="rgb(0,0,0)" />
	<circle cx="171" cy="356" r="3.08642" fill="rgb(0,0,0)" />
	<circle cx="120" cy="249" r="4.85437" fill="rgb(0,0,0)" />
	<circle cx="189" cy="565" r="2.6455" fill="rgb(0,0,0)" />
	<circle cx="56" cy="392" r="4.7619" fill="rgb(0,0,0)" />
	<circle cx="243" cy="466" r="2.76243" fill="rgb(0,0,0)" />
	<circle cx="53" cy="375" r="2.60417" fill="rgb(0,0,0)" />
	<circle cx="75" cy="441" r="2.90698" fill="rgb(0,0,0)" />
	<circle cx="60" cy="403" r="4.80769" fill="rgb(0,0,0)" />
	<circle cx="235" cy="332" r="4.03226" fill="rgb(0,0,0)" />
	<circle cx="39" cy="346" r="1.81159" fill="rgb(0,0,0)" />
	<circle cx="61" cy="329" r="2.04082" fill="rgb(0,0,0)" />
	<circle cx="247" cy="93" r="4.9505" fill="rgb(0,0,0)" />
	<circle cx="247" cy="197" r="4.9505" fill="rgb(0,0,0)" />
	<circle cx="204" cy="553" r="2.60417" fill="rgb(0,0,0)" />
	<circle cx="62" cy="310" r="1.93798" fill="rgb(0,0,0)" />
	<circle cx="299" cy="354" r="2.95858" fill="rgb(0,0,0)" />
	<circle cx="76" cy="354" r="2.25225" fill="rgb(0,0,0)" />
	<circle cx="42" cy="393" r="2.41546" fill="rgb(0,0,0)" />
	<circle cx="163" cy="338" r="4.16667" fill="rgb(0,0,0)" />
	<circle cx="256" cy="203" r="4.9505" fill="rgb(0,0,0)" />
	<circle cx="297" cy="392" r="2.10084" fill="rgb(0,0,0)" />
	<circle cx="78" cy="241" r="2.35849" fill="rgb(0,0,0)" />
	<circle cx="139" cy="487" r="1.4881" fill="rgb(0,0,0)" />
	<circle cx="288" cy="258" r="3.5461" fill="rgb(0,0,0)" />
	<circle cx="159" cy="705" r="1.8797" fill="rgb(0,0,0)" />
	<circle cx="348" cy="316" r="3.52113" fill="rgb(0,0,0)" />
	<circle cx="285" cy="256" r="3.10559" fill="rgb(0,0,0)" />
	<circle cx="398" cy="799" r="1.65016" fill="rgb(0,0,0)" />
	<circle cx="224" cy="98" r="4.6729" fill="rgb(0,0,0)" />
	<circle cx="146" cy="274" r="2.09205" fill="rgb(0,0,0)" />
	<circle cx="127" cy="671" r="2.21239" fill="rgb(0,0,0)" />
	<circle cx="337" cy="328" r="2.95858" fill="rgb(0,0,0)" />
	<circle cx="387" cy="805" r="1.66113" fill="rgb(0,0,0)" />
	<circle cx="156" cy="320" r="4.9505" fill="rgb(0,0,0)" />
	<circle cx="265" cy="331" r="4.23729" fill="rgb(0,0,0)" />
	<circle cx="315" cy="350" r="3.42466" fill="rgb(0,0,0)" />
	<circle cx="374" cy="587" r="1.41243" fill="rgb(0,0,0)" />
	<circle cx="146" cy="675" r="2.30415" fill="rgb(0,0,0)" />
	<circle cx="102" cy="387" r="1.5873" fill="rgb(0,0,0)" />
	<circle cx="99" cy="230" r="4.90196" fill="rgb(0,0,0)" />
	<circle cx="319" cy="330" r="3.5461" fill="rgb(0,0,0)" />
	<circle cx="324" cy="405" r="1.90114" fill="rgb(0,0,0)" />
	<circle cx="151" cy="304" r="4.9505" fill="rgb(0,0,0)" />
	<circle cx="354" cy="555" r="1.67224" fill="rgb(0,0,0)" />
	<circle cx="116" cy="299" r="1.65016" fill="rgb(0,0,0)" />
	<circle cx="373" cy="807" r="1.66113" fill="rgb(0,0,0)" />
	<circle cx="145" cy="291" r="4.54545" fill="rgb(0,0,0)" />
	<circle cx="359" cy="161" r="4.62963" fill="rgb(0,0,0)" />
	<circle cx="280" cy="332" r="4.58716" fill="rgb(0,0,0)" />
	<circle cx="159" cy="692" r="2.08333" fill="rgb(0,0,0)" />
	<circle cx="250" cy="330" r="4.06504" fill="rgb(0,0,0)" />
	<circle cx="136" cy="689" r="2.03252" fill="rgb(0,0,0)" />
	<circle cx="220" cy="334" r="3.7037" fill="rgb(0,0,0)" />
	<circle cx="34" cy="370" r="2.05761" fill="rgb(0,0,0)" />
	<circle cx="266" cy="303" r="1.54321" fill="rgb(0,0,0)" />
	<circle cx="337" cy="424" r="4.71698" fill="rgb(0,0,0)" />
	<circle cx="281" cy="465" r="1.4881" fill="rgb(0,0,0)" />
	<circle cx="185" cy="348" r="4" fill="rgb(0,0,0)" />
	<circle cx="356" cy="344" r="1.44509" fill="rgb(0,0,0)" />
	<circle cx="115" cy="232" r="2.10084" fill="rgb(0,0,0)" />
	<circle cx="92" cy="232" r="3.78788" fill="rgb(0,0,0)" />
	<circle cx="359" cy="826" r="1.87266" fill="rgb(0,0,0)" />
	<circle cx="105" cy="235" r="4.90196" fill="rgb(0,0,0)" />
	<circle cx="39" cy="381" r="3.22581" fill="rgb(0,0,0)" />
	<circle cx="294" cy="335" r="4.54545" fill="rgb(0,0,0)" />
	<circle cx="203" cy="340" r="3.40136" fill="rgb(0,0,0)" />
	<circle cx="184" cy="549" r="3.31126" fill="rgb(0,0,0)" />
	<circle cx="244" cy="455" r="3.4965" fill="rgb(0,0,0)" />
	<circle cx="112" cy="241" r="4.9505" fill="rgb(0,0,0)" />
	<circle cx="290" cy="427" r="3.01205" fill="rgb(0,0,0)" />
	<circle cx="321" cy="740" r="1.43266" fill="rgb(0,0,0)" />
	<circle cx="198" cy="324" r="2.07469" fill="rgb(0,0,0)" />
	<circle cx="246" cy="205" r="4.9505" fill="rgb(0,0,0)" />
	<circle cx="137" cy="279" r="3.87597" fill="rgb(0,0,0)" />
</svg>
