<?xml version="1.0" standalone="no" ?>
<!DOCTYPE svg PUBLIC "-//W3C//DTD SVG 1.1//EN" "http://www.w3.org/Graphics/SVG/1.1/DTD/svg11.dtd">
<svg width="454px" height="834px" xmlns="http://www.w3.org/2000/svg" version="1.1" >
	<circle cx="340" cy="220" r="2.10084" fill="rgb(0,0,0)" />
	<circle cx="173" cy="193" r="2.12766" fill="rgb(0,0,0)" />
	<circle cx="131" cy="204" r="2.11864" fill="rgb(0,0,0)" />
	<circle cx="322" cy="146" r="2.11864" fill="rgb(0,0,0)" />
	<circle cx="290" cy="381" r="2.18341" fill="rgb(0,0,0)" />
	<circle cx="122" cy="523" r="2.10084" fill="rgb(0,0,0)" />
	<circle cx="348" cy="796" r="2.12766" fill="rgb(0,0,0)" />
	<circle cx="248" cy="478" r="2.15517" fill="rgb(0,0,0)" />
	<circle cx="364" cy="138" r="2.07469" fill="rgb(0,0,0)" />
	<circle cx="203" cy="442" r="2.10084" fill="rgb(0,0,0)" />
	<circle cx="261" cy="309" r="2.1645" fill="rgb(0,0,0)" />
	<circle cx="294" cy="113" r="2.09205" fill="rgb(0,0,0)" />
	<circle cx="165" cy="369" r="2.17391" fill="rgb(0,0,0)" />
	<circle cx="246" cy="395" r="2.17391" fill="rgb(0,0,0)" />
	<circle cx="310" cy="681" r="2.07469" fill="rgb(0,0,0)" />
	<circle cx="89" cy="482" r="2.1097" fill="rgb(0,0,0)" />
	<circle cx="152" cy="614" r="2.17391" fill="rgb(0,0,0)" />
	<circle cx="255" cy="520" r="2.08333" fill="rgb(0,0,0)" />
	<circle cx="104" cy="689" r="2.12766" fill="rgb(0,0,0)" />
	<circle cx="291" cy="75" r="2.05761" fill="rgb(0,0,0)" />
	<circle cx="47" cy="440" r="2.11864" fill="rgb(0,0,0)" />
	<circle cx="168" cy="280" r="2.17391" fill="rgb(0,0,0)" />
	<circle cx="139" cy="692" r="2.17391" fill="rgb(0,0,0)" />
	<circle cx="252" cy="225" r="2.18341" fill="rgb(0,0,0)" />
	<circle cx="293" cy="420" r="2.22222" fill="rgb(0,0,0)" />
	<circle cx="86" cy="650" r="2.11864" fill="rgb(0,0,0)" />
	<circle cx="169" cy="323" r="2.22222" fill="rgb(0,0,0)" />
	<circle cx="82" cy="343" r="2.17391" fill="rgb(0,0,0)" />
	<circle cx="122" cy="570" r="2.13675" fill="rgb(0,0,0)" />
	<circle cx="231" cy="639" r="2.14592" fill="rgb(0,0,0)" />
	<circle cx="292" cy="463" r="2.09205" fill="rgb(0,0,0)" />
	<circle cx="210" cy="541" r="2.1645" fill="rgb(0,0,0)" />
	<circle cx="115" cy="610" r="2.14592" fill="rgb(0,0,0)" />
	<circle cx="173" cy="706" r="1.51976" fill="rgb(0,0,0)" />
	<circle cx="173" cy="781" r="2.1097" fill="rgb(0,0,0)" />
	<circle cx="125" cy="289" r="2.17391" fill="rgb(0,0,0)" />
	<circle cx="216" cy="104" r="2.1097" fill="rgb(0,0,0)" />
	<circle cx="353" cy="178" r="2.11864" fill="rgb(0,0,0)" />
	<circle cx="334" cy="100" r="2.05761" fill="rgb(0,0,0)" />
	<circle cx="202" cy="395" r="2.11864" fill="rgb(0,0,0)" />
	<circle cx="263" cy="605" r="2.12766" fill="rgb(0,0,0)" />
	<circle cx="208" cy="347" r="2.22222" fill="rgb(0,0,0)" />
	<circle cx="279" cy="149" r="2.12766" fill="rgb(0,0,0)" />
	<circle cx="120" cy="384" r="2.07469" fill="rgb(0,0,0)" />
	<circle cx="357" cy="425" r="1.53846" fill="rgb(0,0,0)" />
	<circle cx="144" cy="473" r="2.07469" fill="rgb(0,0,0)" />
	<circle cx="313" cy="636" r="2.06612" fill="rgb(0,0,0)" />
	<circle cx="316" cy="305" r="2.13675" fill="rgb(0,0,0)" />
	<circle cx="155" cy="425" r="2.06612" fill="rgb(0,0,0)" />
	<circle cx="410" cy="134" r="2.07469" fill="rgb(0,0,0)" />
	<circle cx="260" cy="562" r="2.10084" fill="rgb(0,0,0)" />
	<circle cx="316" cy="186" r="2.15517" fill="rgb(0,0,0)" />
	<circle cx="297" cy="228" r="2.10084" fill="rgb(0,0,0)" />
	<circle cx="304" cy="590" r="2.07469" fill="rgb(0,0,0)" />
	<circle cx="292" cy="269" r="2.14592" fill="rgb(0,0,0)" />
	<circle cx="307" cy="547" r="2.1097" fill="rgb(0,0,0)" />
	<circle cx="170" cy="235" r="2.13675" fill="rgb(0,0,0)" />
	<circle cx="137" cy="731" r="2.12766" fill="rgb(0,0,0)" />
	<circle cx="97" cy="240" r="1.4881" fill="rgb(0,0,0)" />
	<circle cx="248" cy="351" r="2.19298" fill="rgb(0,0,0)" />
	<circle cx="203" cy="489" r="2.09205" fill="rgb(0,0,0)" />
	<circle cx="171" cy="745" r="2.12766" fill="rgb(0,0,0)" />
	<circle cx="166" cy="554" r="2.14592" fill="rgb(0,0,0)" />
	<circle cx="153" cy="155" r="2.06612" fill="rgb(0,0,0)" />
	<circle cx="79" cy="529" r="2.08333" fill="rgb(0,0,0)" />
	<circle cx="180" cy="590" r="2.1645" fill="rgb(0,0,0)" />
	<circle cx="132" cy="247" r="2.18341" fill="rgb(0,0,0)" />
	<circle cx="213" cy="302" r="2.14592" fill="rgb(0,0,0)" />
	<circle cx="102" cy="436" r="2.11864" fill="rgb(0,0,0)" />
	<circle cx="126" cy="335" r="2.1645" fill="rgb(0,0,0)" />
	<circle cx="243" cy="185" r="2.20264" fill="rgb(0,0,0)" />
	<circle cx="220" cy="589" r="2.12766" fill="rgb(0,0,0)" />
	<circle cx="333" cy="261" r="2.09205" fill="rgb(0,0,0)" />
	<circle cx="255" cy="102" r="2.12766" fill="rgb(0,0,0)" />
	<circle cx="165" cy="512" r="2.1097" fill="rgb(0,0,0)" />
	<circle cx="125" cy="651" r="2.12766" fill="rgb(0,0,0)" />
	<circle cx="280" cy="189" r="2.13675" fill="rgb(0,0,0)" />
	<circle cx="73" cy="397" r="2.1645" fill="rgb(0,0,0)" />
	<circle cx="273" cy="646" r="2.11864" fill="rgb(0,0,0)" />
	<circle cx="327" cy="760" r="2.10084" fill="rgb(0,0,0)" />
	<circle cx="315" cy="721" r="2.09205" fill="rgb(0,0,0)" />
	<circle cx="372" cy="764" r="2.09205" fill="rgb(0,0,0)" />
	<circle cx="250" cy="436" r="2.20264" fill="rgb(0,0,0)" />
	<circle cx="238" cy="144" r="2.14592" fill="rgb(0,0,0)" />
	<circle cx="194" cy="633" r="2.13675" fill="rgb(0,0,0)" />
	<circle cx="210" cy="206" r="2.10084" fill="rgb(0,0,0)" />
	<circle cx="162" cy="657" r="2.12766" fill="rgb(0,0,0)" />
	<circle cx="36" cy="489" r="2.07469" fill="rgb(0,0,0)" />
	<circle cx="133" cy="779" r="2.08333" fill="rgb(0,0,0)" />
	<circle cx="210" cy="253" r="2.13675" fill="rgb(0,0,0)" />
	<circle cx="243" cy="52" r="2.08333" fill="rgb(0,0,0)" />
	<circle cx="198" cy="150" r="2.10084" fill="rgb(0,0,0)" />
	<circle cx="252" cy="266" r="2.12766" fill="rgb(0,0,0)" />
	<circle cx="84" cy="295" r="2.14592" fill="rgb(0,0,0)" />
	<circle cx="293" cy="341" r="2.23214" fill="rgb(0,0,0)" />
	<circle cx="71" cy="573" r="2.10084" fill="rgb(0,0,0)" />
	<circle cx="301" cy="507" r="2.08333" fill="rgb(0,0,0)" />
	<circle cx="36" cy="537" r="2.08333" fill="rgb(0,0,0)" />
	<circle cx="46" cy="368" r="2.20264" fill="rgb(0,0,0)" />
	<circle cx="75" cy="612" r="2.10084" fill="rgb(0,0,0)" />
</svg>
