<?xml version="1.0" ?>
<!DOCTYPE svg PUBLIC "-//W3C//DTD SVG 1.1//EN" "http://www.w3.org/Graphics/SVG/1.1/DTD/svg11.dtd">
<svg width="1180" height="1258" version="1.1" xmlns="http://www.w3.org/2000/svg">
<circle cx="893.755" cy="52.983" r="51.3043" fill="rgb(59,59,59)" />
<circle cx="322.177" cy="171.969" r="34.2022" fill="rgb(130,130,130)" />
<circle cx="176.833" cy="180.827" r="30.0065" fill="rgb(151,151,151)" />
<circle cx="550.952" cy="196.719" r="32.0845" fill="rgb(111,111,111)" />
<circle cx="713.634" cy="210.303" r="15.6355" fill="rgb(213,213,213)" />
<circle cx="282.976" cy="274.102" r="48.3934" fill="rgb(114,114,114)" />
<circle cx="990.988" cy="170.393" r="54.9951" fill="rgb(58,58,58)" />
<circle cx="173.044" cy="325.289" r="35.2136" fill="rgb(124,124,124)" />
<circle cx="499.356" cy="329.428" r="43.8147" fill="rgb(119,119,119)" />
<circle cx="612.655" cy="309.816" r="28.4003" fill="rgb(147,147,147)" />
<circle cx="386.857" cy="335.147" r="46.933" fill="rgb(98,98,98)" />
<circle cx="277.195" cy="409.396" r="39.4153" fill="rgb(51,51,51)" />
<circle cx="868.355" cy="356.589" r="11.0138" fill="rgb(233,233,233)" />
<circle cx="614.297" cy="436.752" r="48.2159" fill="rgb(100,100,100)" />
<circle cx="159.375" cy="464.512" r="38.7829" fill="rgb(104,104,104)" />
<circle cx="380.248" cy="461.787" r="38.7725" fill="rgb(89,89,89)" />
<circle cx="423.419" cy="575.888" r="47.6503" fill="rgb(75,75,75)" />
<circle cx="573.727" cy="557.61" r="45.4625" fill="rgb(55,55,55)" />
<circle cx="1108.13" cy="253.153" r="67.4612" fill="rgb(83,83,83)" />
<circle cx="298.056" cy="636.734" r="54.0084" fill="rgb(73,73,73)" />
<circle cx="849.558" cy="594.976" r="42.0754" fill="rgb(48,48,48)" />
<circle cx="174.741" cy="604.539" r="43.0804" fill="rgb(86,86,86)" />
<circle cx="397.649" cy="687.86" r="42.4155" fill="rgb(53,53,53)" />
<circle cx="975.664" cy="638.281" r="16.1891" fill="rgb(213,213,213)" />
<circle cx="520.372" cy="694.911" r="36.2265" fill="rgb(165,165,165)" />
<circle cx="298.23" cy="757.742" r="46.2315" fill="rgb(85,85,85)" />
<circle cx="646.889" cy="756.356" r="39.0857" fill="rgb(75,75,75)" />
<circle cx="187.8" cy="736.522" r="48.7883" fill="rgb(103,103,103)" />
<circle cx="762.62" cy="763.435" r="38.8" fill="rgb(101,101,101)" />
<circle cx="412.203" cy="801.36" r="51.5047" fill="rgb(98,98,98)" />
<circle cx="924.661" cy="777.833" r="20.6493" fill="rgb(193,193,193)" />
<circle cx="535.855" cy="837.68" r="45.8399" fill="rgb(66,66,66)" />
<circle cx="297.805" cy="859.658" r="62.6572" fill="rgb(9,9,9)" />
<circle cx="748.765" cy="877.6" r="45.0684" fill="rgb(56,56,56)" />
<circle cx="999.069" cy="903.48" r="32.6269" fill="rgb(93,93,93)" />
<circle cx="180.442" cy="914.413" r="48.6252" fill="rgb(10,10,10)" />
<circle cx="428.303" cy="912.041" r="51.993" fill="rgb(60,60,60)" />
<circle cx="639.909" cy="888.028" r="55.4134" fill="rgb(70,70,70)" />
<circle cx="538.293" cy="984.136" r="52.113" fill="rgb(61,61,61)" />
<circle cx="125.965" cy="1003.85" r="55.5803" fill="rgb(18,18,18)" />
<circle cx="950.928" cy="1005.51" r="48.1671" fill="rgb(56,56,56)" />
<circle cx="323.088" cy="960.425" r="55.9544" fill="rgb(2,2,2)" />
<circle cx="1050.32" cy="1012.82" r="42.5077" fill="rgb(73,73,73)" />
<circle cx="209.22" cy="1033.92" r="52.6371" fill="rgb(4,4,4)" />
<circle cx="743.69" cy="983.543" r="30.6639" fill="rgb(158,158,158)" />
<circle cx="221.034" cy="58.1713" r="30.2182" fill="rgb(152,152,152)" />
<circle cx="695.566" cy="642.532" r="36.9311" fill="rgb(147,147,147)" />
<circle cx="305.623" cy="1089.69" r="50.6449" fill="rgb(12,12,12)" />
<circle cx="489.772" cy="1093.06" r="59.073" fill="rgb(11,11,11)" />
<circle cx="584.549" cy="1093.04" r="57.5914" fill="rgb(24,24,24)" />
<circle cx="128.232" cy="1111.88" r="58.9587" fill="rgb(11,11,11)" />
<circle cx="874.82" cy="493.972" r="53.7124" fill="rgb(44,44,44)" />
<circle cx="1017.23" cy="1108.3" r="54.8096" fill="rgb(12,12,12)" />
<circle cx="815.52" cy="1119.4" r="56.0774" fill="rgb(18,18,18)" />
<circle cx="221.127" cy="1129.85" r="59.3679" fill="rgb(5,5,5)" />
<circle cx="386.1" cy="1142.13" r="48.5621" fill="rgb(12,12,12)" />
<circle cx="1109.24" cy="798.731" r="29.2563" fill="rgb(166,166,166)" />
<circle cx="720.611" cy="1190.9" r="58.6463" fill="rgb(5,5,5)" />
<circle cx="1006.01" cy="57.8083" r="51.4151" fill="rgb(68,68,68)" />
<circle cx="301.858" cy="1201.93" r="54.7435" fill="rgb(1,1,1)" />
<circle cx="388.699" cy="1222.06" r="43.2987" fill="rgb(4,4,4)" />
<circle cx="474.542" cy="1202.04" r="52.8374" fill="rgb(8,8,8)" />
<circle cx="1115.44" cy="150.992" r="46.266" fill="rgb(83,83,83)" />
<circle cx="1120.34" cy="48.7572" r="36.8449" fill="rgb(90,90,90)" />
<circle cx="380.652" cy="46.7552" r="25.6062" fill="rgb(189,189,189)" />
<circle cx="918.104" cy="1107.38" r="46.7939" fill="rgb(45,45,45)" />
<circle cx="1127.59" cy="1086.96" r="55.2921" fill="rgb(42,42,42)" />
<circle cx="63.8368" cy="826.846" r="22.872" fill="rgb(177,177,177)" />
<circle cx="1122.5" cy="361.069" r="49.9384" fill="rgb(98,98,98)" />
<circle cx="67.048" cy="685.335" r="36.285" fill="rgb(112,112,112)" />
<circle cx="281.367" cy="532.723" r="52.4333" fill="rgb(74,74,74)" />
<circle cx="641.689" cy="1200.73" r="65.1582" fill="rgb(4,4,4)" />
<circle cx="798.11" cy="1214.54" r="43.2507" fill="rgb(21,21,21)" />
<circle cx="885.582" cy="1206.82" r="48.2604" fill="rgb(28,28,28)" />
<circle cx="437.21" cy="212.966" r="59.7448" fill="rgb(78,78,78)" />
<circle cx="974.358" cy="1204.98" r="47.8687" fill="rgb(50,50,50)" />
<circle cx="62.9002" cy="542.348" r="37.2619" fill="rgb(107,107,107)" />
<circle cx="1129.06" cy="635.599" r="15.1445" fill="rgb(221,221,221)" />
<circle cx="711.951" cy="515.241" r="39.6528" fill="rgb(127,127,127)" />
<circle cx="871.172" cy="922.959" r="52.3866" fill="rgb(57,57,57)" />
<circle cx="852.675" cy="1025.52" r="46.2954" fill="rgb(16,16,16)" />
<circle cx="1133.72" cy="488.064" r="31.0747" fill="rgb(154,154,154)" />
<circle cx="738.682" cy="376.245" r="22.3261" fill="rgb(174,174,174)" />
<circle cx="492.819" cy="456.817" r="47.6464" fill="rgb(104,104,104)" />
<circle cx="1124.83" cy="954.406" r="34.6852" fill="rgb(105,105,105)" />
<circle cx="48.1501" cy="976.175" r="49.8751" fill="rgb(5,5,5)" />
<circle cx="416.575" cy="1020.46" r="56.0443" fill="rgb(29,29,29)" />
<circle cx="556.962" cy="24.0444" r="26.9321" fill="rgb(145,145,145)" />
<circle cx="671.282" cy="1066.06" r="57.5349" fill="rgb(20,20,20)" />
<circle cx="736.901" cy="23.2158" r="20.2413" fill="rgb(120,120,120)" />
<circle cx="69.2709" cy="72.5817" r="29.5114" fill="rgb(154,154,154)" />
<circle cx="52.8959" cy="376.847" r="31.8879" fill="rgb(159,159,159)" />
<circle cx="57.1782" cy="227.064" r="33.6612" fill="rgb(136,136,136)" />
<circle cx="557.579" cy="1201.74" r="61.6095" fill="rgb(13,13,13)" />
<circle cx="42.4218" cy="1084.5" r="55.6302" fill="rgb(9,9,9)" />
<circle cx="42.0327" cy="1198.77" r="59.3732" fill="rgb(4,4,4)" />
<circle cx="215.989" cy="1216.66" r="42.621" fill="rgb(6,6,6)" />
<circle cx="128.604" cy="1209.91" r="59.0923" fill="rgb(6,6,6)" />
<circle cx="1058.77" cy="1205.51" r="61.671" fill="rgb(20,20,20)" />
<circle cx="1140.57" cy="1198.62" r="51.1026" fill="rgb(8,8,8)" />
</svg>
