<?xml version="1.0" ?>
<!DOCTYPE svg PUBLIC "-//W3C//DTD SVG 1.1//EN" "http://www.w3.org/Graphics/SVG/1.1/DTD/svg11.dtd">
<svg width="563" height="600" version="1.1" xmlns="http://www.w3.org/2000/svg">
<circle cx="478.492" cy="27.3364" r="23.8295" fill="rgb(64,64,64)" />
<circle cx="104.424" cy="28.1445" r="14.2734" fill="rgb(152,152,152)" />
<circle cx="179.704" cy="22.7956" r="12.2374" fill="rgb(185,185,185)" />
<circle cx="85.4976" cy="88.0171" r="14.8311" fill="rgb(152,152,152)" />
<circle cx="263.554" cy="94.7404" r="15.6665" fill="rgb(118,118,118)" />
<circle cx="209.027" cy="101.457" r="27.9139" fill="rgb(72,72,72)" />
<circle cx="339.339" cy="97.1733" r="7.10557" fill="rgb(217,217,217)" />
<circle cx="301.232" cy="148.909" r="14.8681" fill="rgb(154,154,154)" />
<circle cx="243.473" cy="156.845" r="20.7396" fill="rgb(123,123,123)" />
<circle cx="83.4706" cy="155.673" r="17.11" fill="rgb(130,130,130)" />
<circle cx="381.322" cy="170.812" r="11.6406" fill="rgb(214,214,214)" />
<circle cx="133.943" cy="196.787" r="19.3332" fill="rgb(73,73,73)" />
<circle cx="301.412" cy="205.77" r="24.1467" fill="rgb(80,80,80)" />
<circle cx="185.507" cy="220.034" r="19.7651" fill="rgb(100,100,100)" />
<circle cx="241.475" cy="217.807" r="23.769" fill="rgb(102,102,102)" />
<circle cx="76.0174" cy="221.244" r="18.7136" fill="rgb(101,101,101)" />
<circle cx="131.747" cy="255.729" r="23.2713" fill="rgb(49,49,49)" />
<circle cx="526.943" cy="112.389" r="18.6273" fill="rgb(83,83,83)" />
<circle cx="423.14" cy="232.578" r="18.9971" fill="rgb(89,89,89)" />
<circle cx="187.111" cy="275.423" r="27.0187" fill="rgb(80,80,80)" />
<circle cx="293.819" cy="259.49" r="26.5253" fill="rgb(131,131,131)" />
<circle cx="243.617" cy="276.968" r="18.1503" fill="rgb(139,139,139)" />
<circle cx="82.8745" cy="288.816" r="20.78" fill="rgb(90,90,90)" />
<circle cx="188.468" cy="160.629" r="22.862" fill="rgb(121,121,121)" />
<circle cx="334.217" cy="308.198" r="16.2044" fill="rgb(130,130,130)" />
<circle cx="414.514" cy="286.635" r="19.2027" fill="rgb(94,94,94)" />
<circle cx="262.567" cy="338.734" r="16.1485" fill="rgb(168,168,168)" />
<circle cx="141.571" cy="364.27" r="24.965" fill="rgb(56,56,56)" />
<circle cx="513.837" cy="319.69" r="9.58719" fill="rgb(211,211,211)" />
<circle cx="319.739" cy="364.2" r="20.7617" fill="rgb(68,68,68)" />
<circle cx="375.083" cy="365.006" r="14.5543" fill="rgb(115,115,115)" />
<circle cx="252.357" cy="399.079" r="24.0403" fill="rgb(122,122,122)" />
<circle cx="355.391" cy="418.287" r="19.1721" fill="rgb(61,61,61)" />
<circle cx="140.046" cy="413.443" r="30.1106" fill="rgb(15,15,15)" />
<circle cx="476.685" cy="433.23" r="15.8687" fill="rgb(97,97,97)" />
<circle cx="83.6936" cy="437.171" r="24.3964" fill="rgb(13,13,13)" />
<circle cx="416.525" cy="438.894" r="22.0483" fill="rgb(64,64,64)" />
<circle cx="532.162" cy="156.874" r="25.623" fill="rgb(101,101,101)" />
<circle cx="302.531" cy="422.415" r="22.8919" fill="rgb(78,78,78)" />
<circle cx="252.221" cy="466.812" r="24.1709" fill="rgb(71,71,71)" />
<circle cx="154.424" cy="461.3" r="27.5687" fill="rgb(9,9,9)" />
<circle cx="452.69" cy="480.814" r="22.7094" fill="rgb(54,54,54)" />
<circle cx="100.53" cy="489.8" r="22.6872" fill="rgb(3,3,3)" />
<circle cx="137.152" cy="132.951" r="22.9356" fill="rgb(84,84,84)" />
<circle cx="60.2103" cy="485.278" r="28.9053" fill="rgb(11,11,11)" />
<circle cx="141.683" cy="310.296" r="24.1988" fill="rgb(52,52,52)" />
<circle cx="499.601" cy="485.159" r="20.2808" fill="rgb(68,68,68)" />
<circle cx="406.685" cy="489.259" r="21.1218" fill="rgb(16,16,16)" />
<circle cx="360.04" cy="467.012" r="15.0397" fill="rgb(151,151,151)" />
<circle cx="317.451" cy="494.751" r="22.6725" fill="rgb(106,106,106)" />
<circle cx="271.823" cy="516.974" r="29.4767" fill="rgb(9,9,9)" />
<circle cx="229.085" cy="523.419" r="27.4877" fill="rgb(18,18,18)" />
<circle cx="482.966" cy="529.201" r="25.7878" fill="rgb(8,8,8)" />
<circle cx="434.931" cy="529.082" r="22.1222" fill="rgb(37,37,37)" />
<circle cx="141.077" cy="523.707" r="28.6777" fill="rgb(5,5,5)" />
<circle cx="386.032" cy="533.989" r="27.2193" fill="rgb(26,26,26)" />
<circle cx="313.604" cy="535.882" r="27.8332" fill="rgb(46,46,46)" />
<circle cx="53.0398" cy="534.532" r="24.027" fill="rgb(11,11,11)" />
<circle cx="451.033" cy="366.251" r="8.92117" fill="rgb(199,199,199)" />
<circle cx="95.6966" cy="534.116" r="29.4079" fill="rgb(7,7,7)" />
<circle cx="153.093" cy="83.0997" r="16.7605" fill="rgb(150,150,150)" />
<circle cx="180.19" cy="543.738" r="23.1859" fill="rgb(10,10,10)" />
<circle cx="533.57" cy="21.6756" r="17.9304" fill="rgb(87,87,87)" />
<circle cx="198.452" cy="487.286" r="28.7714" fill="rgb(23,23,23)" />
<circle cx="250.116" cy="571.017" r="28.0724" fill="rgb(7,7,7)" />
<circle cx="192.702" cy="384.135" r="28.9967" fill="rgb(80,80,80)" />
<circle cx="536.866" cy="520.325" r="26.0175" fill="rgb(30,30,30)" />
<circle cx="291.282" cy="576.05" r="30.0676" fill="rgb(13,13,13)" />
<circle cx="471.105" cy="80.7564" r="22.5364" fill="rgb(66,66,66)" />
<circle cx="531.038" cy="386.601" r="12.5253" fill="rgb(161,161,161)" />
<circle cx="25.2769" cy="462.753" r="23.0652" fill="rgb(23,23,23)" />
<circle cx="114.242" cy="575.421" r="28.4567" fill="rgb(6,6,6)" />
<circle cx="30.0655" cy="392.623" r="10.6926" fill="rgb(179,179,179)" />
<circle cx="31.5312" cy="325.887" r="17.371" fill="rgb(105,105,105)" />
<circle cx="200.991" cy="435.492" r="24.1537" fill="rgb(55,55,55)" />
<circle cx="461.978" cy="574.63" r="22.3693" fill="rgb(43,43,43)" />
<circle cx="376.316" cy="577.236" r="20.0324" fill="rgb(23,23,23)" />
<circle cx="357.144" cy="243.711" r="16.5034" fill="rgb(163,163,163)" />
<circle cx="337.031" cy="573.064" r="29.6894" fill="rgb(12,12,12)" />
<circle cx="418.864" cy="575.632" r="23.017" fill="rgb(30,30,30)" />
<circle cx="539.837" cy="262.001" r="13.1166" fill="rgb(182,182,182)" />
<circle cx="531.359" cy="67.3583" r="21.3571" fill="rgb(91,91,91)" />
<circle cx="540.803" cy="203.641" r="17.6327" fill="rgb(111,111,111)" />
<circle cx="157.127" cy="577.797" r="27.5744" fill="rgb(7,7,7)" />
<circle cx="206.961" cy="577.264" r="28.1271" fill="rgb(11,11,11)" />
<circle cx="263.387" cy="11.7493" r="12.657" fill="rgb(160,160,160)" />
<circle cx="536.149" cy="459.686" r="17.2898" fill="rgb(101,101,101)" />
<circle cx="349.639" cy="10.7854" r="9.52553" fill="rgb(126,126,126)" />
<circle cx="32.9923" cy="34.9221" r="14.2645" fill="rgb(156,156,156)" />
<circle cx="25.3327" cy="179.141" r="15.1997" fill="rgb(157,157,157)" />
<circle cx="27.5016" cy="108.201" r="15.9756" fill="rgb(136,136,136)" />
<circle cx="18.09" cy="514.096" r="28.0893" fill="rgb(11,11,11)" />
<circle cx="425.168" cy="24.7025" r="23.8906" fill="rgb(57,57,57)" />
<circle cx="67.6555" cy="578.089" r="25.3023" fill="rgb(2,2,2)" />
<circle cx="198.305" cy="330.767" r="22.5403" fill="rgb(84,84,84)" />
<circle cx="88.4211" cy="351.523" r="23.2863" fill="rgb(91,91,91)" />
<circle cx="30.0177" cy="257.831" r="17.7884" fill="rgb(109,109,109)" />
<circle cx="20.7674" cy="572.437" r="28.4739" fill="rgb(5,5,5)" />
<circle cx="503.253" cy="574.47" r="28.8681" fill="rgb(13,13,13)" />
<circle cx="543.246" cy="572.022" r="23.6582" fill="rgb(9,9,9)" />
</svg>
