<?xml version="1.0" standalone="no" ?>
<!DOCTYPE svg PUBLIC "-//W3C//DTD SVG 1.1//EN" "http://www.w3.org/Graphics/SVG/1.1/DTD/svg11.dtd">
<svg width="563px" height="600px" xmlns="http://www.w3.org/2000/svg" version="1.1" >
	<circle cx="27" cy="31" r="11.6732" fill="rgb(157,157,157)" />
	<circle cx="90" cy="115" r="12.3967" fill="rgb(142,142,142)" />
	<circle cx="57" cy="544" r="27.7778" fill="rgb(8,8,8)" />
	<circle cx="453" cy="15" r="18.2927" fill="rgb(64,64,64)" />
	<circle cx="134" cy="334" r="17.0455" fill="rgb(76,76,76)" />
	<circle cx="288" cy="579" r="27.5229" fill="rgb(9,9,9)" />
	<circle cx="56" cy="581" r="27.7778" fill="rgb(8,8,8)" />
	<circle cx="496" cy="16" r="16.8539" fill="rgb(78,78,78)" />
	<circle cx="403" cy="243" r="15.625" fill="rgb(92,92,92)" />
	<circle cx="138" cy="52" r="11.6732" fill="rgb(157,157,157)" />
	<circle cx="210" cy="468" r="21.2766" fill="rgb(41,41,41)" />
	<circle cx="66" cy="476" r="27.027" fill="rgb(11,11,11)" />
	<circle cx="451" cy="580" r="21.1268" fill="rgb(42,42,42)" />
	<circle cx="314" cy="460" r="13.4529" fill="rgb(123,123,123)" />
	<circle cx="189" cy="251" r="15.7895" fill="rgb(90,90,90)" />
	<circle cx="209" cy="361" r="14.8515" fill="rgb(102,102,102)" />
	<circle cx="65" cy="182" r="12.5523" fill="rgb(139,139,139)" />
	<circle cx="455" cy="180" r="10.0334" fill="rgb(199,199,199)" />
	<circle cx="34" cy="358" r="11.8577" fill="rgb(153,153,153)" />
	<circle cx="107" cy="282" r="16.129" fill="rgb(86,86,86)" />
	<circle cx="313" cy="394" r="15.4639" fill="rgb(94,94,94)" />
	<circle cx="100" cy="535" r="28.3019" fill="rgb(6,6,6)" />
	<circle cx="206" cy="418" r="17.0455" fill="rgb(76,76,76)" />
	<circle cx="542" cy="100" r="15.873" fill="rgb(89,89,89)" />
	<circle cx="164" cy="371" r="20" fill="rgb(50,50,50)" />
	<circle cx="367" cy="509" r="15.3061" fill="rgb(96,96,96)" />
	<circle cx="160" cy="415" r="22.7273" fill="rgb(32,32,32)" />
	<circle cx="546" cy="137" r="15.625" fill="rgb(92,92,92)" />
	<circle cx="29" cy="92" r="12.2449" fill="rgb(145,145,145)" />
	<circle cx="70" cy="509" r="27.7778" fill="rgb(8,8,8)" />
	<circle cx="265" cy="182" r="13.8889" fill="rgb(116,116,116)" />
	<circle cx="132" cy="581" r="28.8462" fill="rgb(4,4,4)" />
	<circle cx="419" cy="509" r="23.2558" fill="rgb(29,29,29)" />
	<circle cx="141" cy="238" r="16.6667" fill="rgb(80,80,80)" />
	<circle cx="520" cy="359" r="10.101" fill="rgb(197,197,197)" />
	<circle cx="412" cy="547" r="22.9008" fill="rgb(31,31,31)" />
	<circle cx="502" cy="535" r="22.5564" fill="rgb(33,33,33)" />
	<circle cx="414" cy="271" r="16.6667" fill="rgb(80,80,80)" />
	<circle cx="173" cy="456" r="24.3902" fill="rgb(23,23,23)" />
	<circle cx="289" cy="331" r="11.9522" fill="rgb(151,151,151)" />
	<circle cx="189" cy="108" r="14.5631" fill="rgb(106,106,106)" />
	<circle cx="152" cy="282" r="19.6078" fill="rgb(53,53,53)" />
	<circle cx="495" cy="579" r="25.641" fill="rgb(17,17,17)" />
	<circle cx="290" cy="224" r="16.129" fill="rgb(86,86,86)" />
	<circle cx="235" cy="503" r="25.2101" fill="rgb(19,19,19)" />
	<circle cx="540" cy="19" r="15.7068" fill="rgb(91,91,91)" />
	<circle cx="17" cy="541" r="27.7778" fill="rgb(8,8,8)" />
	<circle cx="42" cy="440" r="12.8205" fill="rgb(134,134,134)" />
	<circle cx="192" cy="523" r="19.6078" fill="rgb(53,53,53)" />
	<circle cx="542" cy="60" r="15.3846" fill="rgb(95,95,95)" />
	<circle cx="39" cy="294" r="13.4529" fill="rgb(123,123,123)" />
	<circle cx="378" cy="310" r="11.1524" fill="rgb(169,169,169)" />
	<circle cx="148" cy="131" r="14.9254" fill="rgb(101,101,101)" />
	<circle cx="167" cy="192" r="14.8515" fill="rgb(102,102,102)" />
	<circle cx="110" cy="392" r="14.0845" fill="rgb(113,113,113)" />
	<circle cx="255" cy="402" r="15.7068" fill="rgb(91,91,91)" />
	<circle cx="305" cy="44" r="10.453" fill="rgb(187,187,187)" />
	<circle cx="18" cy="580" r="28.5714" fill="rgb(5,5,5)" />
	<circle cx="208" cy="579" r="28.0374" fill="rgb(7,7,7)" />
	<circle cx="177" cy="316" r="18.0723" fill="rgb(66,66,66)" />
	<circle cx="19" cy="482" r="27.5229" fill="rgb(9,9,9)" />
	<circle cx="549" cy="176" r="15.1515" fill="rgb(98,98,98)" />
	<circle cx="85" cy="329" r="15.544" fill="rgb(93,93,93)" />
	<circle cx="536" cy="496" r="17.9641" fill="rgb(67,67,67)" />
	<circle cx="247" cy="581" r="27.2727" fill="rgb(10,10,10)" />
	<circle cx="243" cy="246" r="15" fill="rgb(100,100,100)" />
	<circle cx="138" cy="542" r="28.5714" fill="rgb(5,5,5)" />
	<circle cx="458" cy="509" r="22.5564" fill="rgb(33,33,33)" />
	<circle cx="366" cy="579" r="24.7934" fill="rgb(21,21,21)" />
	<circle cx="81" cy="33" r="11.7188" fill="rgb(156,156,156)" />
	<circle cx="170" cy="578" r="28.5714" fill="rgb(5,5,5)" />
	<circle cx="117" cy="184" r="13.8249" fill="rgb(117,117,117)" />
	<circle cx="215" cy="204" r="14.8515" fill="rgb(102,102,102)" />
	<circle cx="270" cy="508" r="26.087" fill="rgb(15,15,15)" />
	<circle cx="297" cy="263" r="15.3846" fill="rgb(95,95,95)" />
	<circle cx="246" cy="124" r="14.4928" fill="rgb(107,107,107)" />
	<circle cx="460" cy="544" r="22.7273" fill="rgb(32,32,32)" />
	<circle cx="29" cy="234" r="12.1457" fill="rgb(147,147,147)" />
	<circle cx="119" cy="474" r="16.3934" fill="rgb(83,83,83)" />
	<circle cx="298" cy="535" r="25.8621" fill="rgb(16,16,16)" />
	<circle cx="467" cy="49" r="18.0723" fill="rgb(66,66,66)" />
	<circle cx="223" cy="299" r="13.5747" fill="rgb(121,121,121)" />
	<circle cx="543" cy="540" r="22.9008" fill="rgb(31,31,31)" />
	<circle cx="254" cy="461" r="16.0428" fill="rgb(87,87,87)" />
	<circle cx="437" cy="466" r="19.4805" fill="rgb(54,54,54)" />
	<circle cx="539" cy="580" r="24" fill="rgb(25,25,25)" />
	<circle cx="328" cy="201" r="11.7188" fill="rgb(156,156,156)" />
	<circle cx="501" cy="51" r="16.7598" fill="rgb(79,79,79)" />
	<circle cx="486" cy="484" r="17.8571" fill="rgb(68,68,68)" />
	<circle cx="85" cy="239" r="14.4231" fill="rgb(108,108,108)" />
	<circle cx="95" cy="577" r="28.3019" fill="rgb(6,6,6)" />
	<circle cx="28" cy="509" r="27.7778" fill="rgb(8,8,8)" />
	<circle cx="506" cy="84" r="16.6667" fill="rgb(80,80,80)" />
	<circle cx="23" cy="151" r="12.1951" fill="rgb(146,146,146)" />
	<circle cx="207" cy="156" r="14.7783" fill="rgb(103,103,103)" />
	<circle cx="406" cy="582" r="23.0769" fill="rgb(30,30,30)" />
	<circle cx="518" cy="439" r="11.9522" fill="rgb(151,151,151)" />
	<circle cx="258" cy="544" r="28.8462" fill="rgb(4,4,4)" />
	<circle cx="327" cy="579" r="27.2727" fill="rgb(10,10,10)" />
	<circle cx="403" cy="413" r="12.0968" fill="rgb(148,148,148)" />
</svg>
