<?xml version="1.0" standalone="no" ?>
<!DOCTYPE svg PUBLIC "-//W3C//DTD SVG 1.1//EN" "http://www.w3.org/Graphics/SVG/1.1/DTD/svg11.dtd">
<svg width="563px" height="600px" xmlns="http://www.w3.org/2000/svg" version="1.1" >
	<circle cx="374" cy="306" r="1.84502" fill="rgb(171,171,171)" />
	<circle cx="496" cy="520" r="3.7037" fill="rgb(35,35,35)" />
	<circle cx="88" cy="330" r="2.60417" fill="rgb(92,92,92)" />
	<circle cx="158" cy="387" r="3.52113" fill="rgb(42,42,42)" />
	<circle cx="58" cy="542" r="4.58716" fill="rgb(9,9,9)" />
	<circle cx="39" cy="293" r="2.23214" fill="rgb(124,124,124)" />
	<circle cx="264" cy="439" r="2.43902" fill="rgb(105,105,105)" />
	<circle cx="409" cy="270" r="2.90698" fill="rgb(72,72,72)" />
	<circle cx="189" cy="357" r="2.76243" fill="rgb(81,81,81)" />
	<circle cx="193" cy="159" r="2.45098" fill="rgb(104,104,104)" />
	<circle cx="241" cy="380" r="2.41546" fill="rgb(107,107,107)" />
	<circle cx="280" cy="538" r="4.6729" fill="rgb(7,7,7)" />
	<circle cx="137" cy="340" r="2.90698" fill="rgb(72,72,72)" />
	<circle cx="86" cy="578" r="4.71698" fill="rgb(6,6,6)" />
	<circle cx="198" cy="255" r="2.59067" fill="rgb(93,93,93)" />
	<circle cx="84" cy="110" r="2.02429" fill="rgb(147,147,147)" />
	<circle cx="440" cy="293" r="1.76056" fill="rgb(184,184,184)" />
	<circle cx="226" cy="307" r="2.20264" fill="rgb(127,127,127)" />
	<circle cx="205" cy="420" r="2.84091" fill="rgb(76,76,76)" />
	<circle cx="534" cy="24" r="2.63158" fill="rgb(90,90,90)" />
	<circle cx="299" cy="256" r="2.6455" fill="rgb(89,89,89)" />
	<circle cx="34" cy="358" r="1.97628" fill="rgb(153,153,153)" />
	<circle cx="339" cy="580" r="4.46429" fill="rgb(12,12,12)" />
	<circle cx="117" cy="474" r="2.73224" fill="rgb(83,83,83)" />
	<circle cx="27" cy="95" r="2.04918" fill="rgb(144,144,144)" />
	<circle cx="291" cy="311" r="1.98413" fill="rgb(152,152,152)" />
	<circle cx="178" cy="112" r="2.38095" fill="rgb(110,110,110)" />
	<circle cx="437" cy="582" r="3.59712" fill="rgb(39,39,39)" />
	<circle cx="27" cy="32" r="1.94553" fill="rgb(157,157,157)" />
	<circle cx="487" cy="583" r="4.09836" fill="rgb(22,22,22)" />
	<circle cx="38" cy="444" r="2.19298" fill="rgb(128,128,128)" />
	<circle cx="359" cy="512" r="2.51256" fill="rgb(99,99,99)" />
	<circle cx="98" cy="535" r="4.71698" fill="rgb(6,6,6)" />
	<circle cx="474" cy="20" r="2.94118" fill="rgb(70,70,70)" />
	<circle cx="174" cy="501" r="3.0303" fill="rgb(65,65,65)" />
	<circle cx="252" cy="578" r="4.54545" fill="rgb(10,10,10)" />
	<circle cx="171" cy="557" r="4.7619" fill="rgb(5,5,5)" />
	<circle cx="539" cy="582" r="4.06504" fill="rgb(23,23,23)" />
	<circle cx="538" cy="499" r="3.0303" fill="rgb(65,65,65)" />
	<circle cx="134" cy="113" r="2.43902" fill="rgb(105,105,105)" />
	<circle cx="404" cy="243" r="2.60417" fill="rgb(92,92,92)" />
	<circle cx="159" cy="426" r="3.90625" fill="rgb(28,28,28)" />
	<circle cx="206" cy="582" r="4.6729" fill="rgb(7,7,7)" />
	<circle cx="310" cy="43" r="1.75439" fill="rgb(185,185,185)" />
	<circle cx="156" cy="208" r="2.53807" fill="rgb(97,97,97)" />
	<circle cx="226" cy="477" r="3.59712" fill="rgb(39,39,39)" />
	<circle cx="295" cy="578" r="4.58716" fill="rgb(9,9,9)" />
	<circle cx="416" cy="511" r="3.93701" fill="rgb(27,27,27)" />
	<circle cx="19" cy="536" r="4.58716" fill="rgb(9,9,9)" />
	<circle cx="546" cy="131" r="2.6178" fill="rgb(91,91,91)" />
	<circle cx="70" cy="472" r="4.5045" fill="rgb(11,11,11)" />
	<circle cx="22" cy="494" r="4.62963" fill="rgb(8,8,8)" />
	<circle cx="295" cy="494" r="2.6738" fill="rgb(87,87,87)" />
	<circle cx="295" cy="215" r="2.68817" fill="rgb(86,86,86)" />
	<circle cx="121" cy="580" r="4.80769" fill="rgb(4,4,4)" />
	<circle cx="159" cy="584" r="4.7619" fill="rgb(5,5,5)" />
	<circle cx="151" cy="254" r="2.92398" fill="rgb(71,71,71)" />
	<circle cx="35" cy="231" r="2.04918" fill="rgb(144,144,144)" />
	<circle cx="210" cy="205" r="2.48756" fill="rgb(101,101,101)" />
	<circle cx="463" cy="165" r="1.70068" fill="rgb(194,194,194)" />
	<circle cx="65" cy="505" r="4.62963" fill="rgb(8,8,8)" />
	<circle cx="179" cy="306" r="2.97619" fill="rgb(68,68,68)" />
	<circle cx="414" cy="547" r="3.81679" fill="rgb(31,31,31)" />
	<circle cx="217" cy="538" r="3.7594" fill="rgb(33,33,33)" />
	<circle cx="385" cy="580" r="3.93701" fill="rgb(27,27,27)" />
	<circle cx="135" cy="542" r="4.7619" fill="rgb(5,5,5)" />
	<circle cx="24" cy="157" r="2.00803" fill="rgb(149,149,149)" />
	<circle cx="333" cy="203" r="1.92308" fill="rgb(160,160,160)" />
	<circle cx="143" cy="292" r="3.40136" fill="rgb(47,47,47)" />
	<circle cx="506" cy="553" r="3.84615" fill="rgb(30,30,30)" />
	<circle cx="327" cy="432" r="2.5" fill="rgb(100,100,100)" />
	<circle cx="16" cy="578" r="4.7619" fill="rgb(5,5,5)" />
	<circle cx="134" cy="163" r="2.34742" fill="rgb(113,113,113)" />
	<circle cx="330" cy="350" r="2.6455" fill="rgb(89,89,89)" />
	<circle cx="141" cy="44" r="1.92308" fill="rgb(160,160,160)" />
	<circle cx="186" cy="459" r="3.84615" fill="rgb(30,30,30)" />
	<circle cx="420" cy="473" r="3.64964" fill="rgb(37,37,37)" />
	<circle cx="454" cy="506" r="3.64964" fill="rgb(37,37,37)" />
	<circle cx="522" cy="440" r="1.98413" fill="rgb(152,152,152)" />
	<circle cx="249" cy="143" r="2.31481" fill="rgb(116,116,116)" />
	<circle cx="76" cy="172" r="2.14592" fill="rgb(133,133,133)" />
	<circle cx="107" cy="395" r="2.30415" fill="rgb(117,117,117)" />
	<circle cx="250" cy="244" r="2.55102" fill="rgb(96,96,96)" />
	<circle cx="454" cy="458" r="2.95858" fill="rgb(69,69,69)" />
	<circle cx="402" cy="411" r="2" fill="rgb(150,150,150)" />
	<circle cx="540" cy="79" r="2.6178" fill="rgb(91,91,91)" />
	<circle cx="264" cy="188" r="2.32558" fill="rgb(115,115,115)" />
	<circle cx="461" cy="546" r="3.7594" fill="rgb(33,33,33)" />
	<circle cx="522" cy="359" r="1.68919" fill="rgb(196,196,196)" />
	<circle cx="495" cy="61" r="2.84091" fill="rgb(76,76,76)" />
	<circle cx="99" cy="280" r="2.57732" fill="rgb(94,94,94)" />
	<circle cx="544" cy="541" r="3.84615" fill="rgb(30,30,30)" />
	<circle cx="224" cy="110" r="2.68817" fill="rgb(86,86,86)" />
	<circle cx="491" cy="482" r="2.90698" fill="rgb(72,72,72)" />
	<circle cx="251" cy="509" r="4.46429" fill="rgb(12,12,12)" />
	<circle cx="50" cy="581" r="4.62963" fill="rgb(8,8,8)" />
	<circle cx="272" cy="4" r="2.95858" fill="rgb(69,69,69)" />
	<circle cx="302" cy="388" r="2.35849" fill="rgb(112,112,112)" />
	<circle cx="101" cy="226" r="2.45098" fill="rgb(104,104,104)" />
	<circle cx="81" cy="35" r="1.95313" fill="rgb(156,156,156)" />
</svg>
