<?xml version="1.0" standalone="no" ?>
<!DOCTYPE svg PUBLIC "-//W3C//DTD SVG 1.1//EN" "http://www.w3.org/Graphics/SVG/1.1/DTD/svg11.dtd">
<svg width="1180px" height="1258px" xmlns="http://www.w3.org/2000/svg" version="1.1" >
	<circle cx="290" cy="1218" r="4.7619" fill="rgb(5,5,5)" />
	<circle cx="741" cy="1216" r="4.31034" fill="rgb(16,16,16)" />
	<circle cx="537" cy="1081" r="4.62963" fill="rgb(8,8,8)" />
	<circle cx="486" cy="256" r="2.53807" fill="rgb(97,97,97)" />
	<circle cx="124" cy="1210" r="4.62963" fill="rgb(8,8,8)" />
	<circle cx="204" cy="250" r="2.12766" fill="rgb(135,135,135)" />
	<circle cx="215" cy="536" r="2.6178" fill="rgb(91,91,91)" />
	<circle cx="1029" cy="1219" r="4.23729" fill="rgb(18,18,18)" />
	<circle cx="650" cy="1215" r="4.58716" fill="rgb(9,9,9)" />
	<circle cx="1046" cy="44" r="2.7933" fill="rgb(79,79,79)" />
	<circle cx="66" cy="706" r="2.18341" fill="rgb(129,129,129)" />
	<circle cx="560" cy="1220" r="4.54545" fill="rgb(10,10,10)" />
	<circle cx="1136" cy="119" r="2.55102" fill="rgb(96,96,96)" />
	<circle cx="975" cy="970" r="2.89017" fill="rgb(73,73,73)" />
	<circle cx="540" cy="1007" r="3.26797" fill="rgb(53,53,53)" />
	<circle cx="287" cy="830" r="3.24675" fill="rgb(54,54,54)" />
	<circle cx="838" cy="1222" r="3.84615" fill="rgb(30,30,30)" />
	<circle cx="432" cy="384" r="2.46305" fill="rgb(103,103,103)" />
	<circle cx="543" cy="367" r="2.27273" fill="rgb(120,120,120)" />
	<circle cx="989" cy="107" r="2.99401" fill="rgb(67,67,67)" />
	<circle cx="875" cy="1069" r="3.93701" fill="rgb(27,27,27)" />
	<circle cx="361" cy="628" r="3.01205" fill="rgb(66,66,66)" />
	<circle cx="1148" cy="1168" r="4.13223" fill="rgb(21,21,21)" />
	<circle cx="1057" cy="146" r="2.7933" fill="rgb(79,79,79)" />
	<circle cx="389" cy="728" r="2.84091" fill="rgb(76,76,76)" />
	<circle cx="911" cy="1142" r="3.4965" fill="rgb(43,43,43)" />
	<circle cx="711" cy="448" r="1.9305" fill="rgb(159,159,159)" />
	<circle cx="92" cy="74" r="1.94553" fill="rgb(157,157,157)" />
	<circle cx="762" cy="12" r="2.40385" fill="rgb(108,108,108)" />
	<circle cx="41" cy="1222" r="4.7619" fill="rgb(5,5,5)" />
	<circle cx="322" cy="335" r="2.43902" fill="rgb(105,105,105)" />
	<circle cx="206" cy="1208" r="4.71698" fill="rgb(6,6,6)" />
	<circle cx="1157" cy="460" r="2.23214" fill="rgb(124,124,124)" />
	<circle cx="1144" cy="276" r="2.60417" fill="rgb(92,92,92)" />
	<circle cx="474" cy="633" r="2.23214" fill="rgb(124,124,124)" />
	<circle cx="1125" cy="1023" r="2.85714" fill="rgb(75,75,75)" />
	<circle cx="82" cy="355" r="2.00803" fill="rgb(149,149,149)" />
	<circle cx="250" cy="993" r="2.73224" fill="rgb(83,83,83)" />
	<circle cx="1122" cy="1225" r="3.96825" fill="rgb(26,26,26)" />
	<circle cx="539" cy="1151" r="4.80769" fill="rgb(4,4,4)" />
	<circle cx="41" cy="1148" r="4.62963" fill="rgb(8,8,8)" />
	<circle cx="851" cy="862" r="1.99203" fill="rgb(151,151,151)" />
	<circle cx="123" cy="1114" r="4.58716" fill="rgb(9,9,9)" />
	<circle cx="1138" cy="1096" r="3.42466" fill="rgb(46,46,46)" />
	<circle cx="1134" cy="200" r="2.6455" fill="rgb(89,89,89)" />
	<circle cx="384" cy="981" r="4.06504" fill="rgb(23,23,23)" />
	<circle cx="127" cy="862" r="2.01613" fill="rgb(148,148,148)" />
	<circle cx="379" cy="821" r="3.06748" fill="rgb(63,63,63)" />
	<circle cx="454" cy="916" r="2.87356" fill="rgb(74,74,74)" />
	<circle cx="615" cy="443" r="2.73224" fill="rgb(83,83,83)" />
	<circle cx="350" cy="907" r="3.84615" fill="rgb(30,30,30)" />
	<circle cx="765" cy="1062" r="2.45098" fill="rgb(104,104,104)" />
	<circle cx="524" cy="498" r="2.5641" fill="rgb(95,95,95)" />
	<circle cx="1040" cy="1049" r="3.20513" fill="rgb(56,56,56)" />
	<circle cx="846" cy="509" r="2.60417" fill="rgb(92,92,92)" />
	<circle cx="463" cy="1020" r="3.81679" fill="rgb(31,31,31)" />
	<circle cx="540" cy="10" r="2.77778" fill="rgb(80,80,80)" />
	<circle cx="1092" cy="919" r="1.9685" fill="rgb(154,154,154)" />
	<circle cx="832" cy="1153" r="4.03226" fill="rgb(24,24,24)" />
	<circle cx="206" cy="669" r="2.6178" fill="rgb(91,91,91)" />
	<circle cx="993" cy="1139" r="4.20168" fill="rgb(19,19,19)" />
	<circle cx="288" cy="1136" r="4.7619" fill="rgb(5,5,5)" />
	<circle cx="935" cy="1218" r="3.52113" fill="rgb(42,42,42)" />
	<circle cx="645" cy="804" r="2.40385" fill="rgb(108,108,108)" />
	<circle cx="780" cy="656" r="1.86567" fill="rgb(168,168,168)" />
	<circle cx="926" cy="603" r="1.74825" fill="rgb(186,186,186)" />
	<circle cx="367" cy="245" r="2.43902" fill="rgb(105,105,105)" />
	<circle cx="136" cy="1015" r="4.54545" fill="rgb(10,10,10)" />
	<circle cx="621" cy="1129" r="4.31034" fill="rgb(16,16,16)" />
	<circle cx="893" cy="985" r="3.47222" fill="rgb(44,44,44)" />
	<circle cx="419" cy="513" r="2.53807" fill="rgb(97,97,97)" />
	<circle cx="217" cy="402" r="2.31481" fill="rgb(116,116,116)" />
	<circle cx="277" cy="103" r="1.95313" fill="rgb(156,156,156)" />
	<circle cx="854" cy="568" r="2.85714" fill="rgb(75,75,75)" />
	<circle cx="1149" cy="360" r="2.53807" fill="rgb(97,97,97)" />
	<circle cx="635" cy="1034" r="2.47525" fill="rgb(102,102,102)" />
	<circle cx="203" cy="1112" r="4.71698" fill="rgb(6,6,6)" />
	<circle cx="98" cy="604" r="2.29358" fill="rgb(118,118,118)" />
	<circle cx="957" cy="1061" r="3.67647" fill="rgb(36,36,36)" />
	<circle cx="63" cy="213" r="2.04918" fill="rgb(144,144,144)" />
	<circle cx="597" cy="9" r="2.84091" fill="rgb(76,76,76)" />
	<circle cx="465" cy="1216" r="4.58716" fill="rgb(9,9,9)" />
	<circle cx="325" cy="449" r="2.5641" fill="rgb(95,95,95)" />
	<circle cx="376" cy="1212" r="4.7619" fill="rgb(5,5,5)" />
	<circle cx="571" cy="905" r="2.40385" fill="rgb(108,108,108)" />
	<circle cx="312" cy="554" r="3.10559" fill="rgb(61,61,61)" />
	<circle cx="1133" cy="39" r="2.6178" fill="rgb(91,91,91)" />
	<circle cx="623" cy="540" r="2.6455" fill="rgb(89,89,89)" />
	<circle cx="75" cy="495" r="2.06612" fill="rgb(142,142,142)" />
	<circle cx="47" cy="1000" r="4.31034" fill="rgb(16,16,16)" />
	<circle cx="42" cy="1072" r="4.58716" fill="rgb(9,9,9)" />
	<circle cx="1068" cy="1140" r="3.7037" fill="rgb(35,35,35)" />
	<circle cx="407" cy="1102" r="3.26797" fill="rgb(53,53,53)" />
	<circle cx="292" cy="717" r="2.97619" fill="rgb(68,68,68)" />
	<circle cx="692" cy="903" r="2.6178" fill="rgb(91,91,91)" />
	<circle cx="1095" cy="747" r="1.6835" fill="rgb(197,197,197)" />
	<circle cx="621" cy="668" r="2" fill="rgb(150,150,150)" />
	<circle cx="497" cy="798" r="2.42718" fill="rgb(106,106,106)" />
	<circle cx="800" cy="237" r="1.68919" fill="rgb(196,196,196)" />
	<circle cx="953" cy="33" r="3.0303" fill="rgb(65,65,65)" />
</svg>
