<?xml version="1.0" standalone="no" ?>
<!DOCTYPE svg PUBLIC "-//W3C//DTD SVG 1.1//EN" "http://www.w3.org/Graphics/SVG/1.1/DTD/svg11.dtd">
<svg width="563px" height="600px" xmlns="http://www.w3.org/2000/svg" version="1.1" >
	<circle cx="36" cy="437" r="4.23729" fill="rgb(136,136,136)" />
	<circle cx="312" cy="381" r="4.7619" fill="rgb(110,110,110)" />
	<circle cx="40" cy="188" r="4.04858" fill="rgb(147,147,147)" />
	<circle cx="87" cy="116" r="4.11523" fill="rgb(143,143,143)" />
	<circle cx="278" cy="177" r="4.5045" fill="rgb(122,122,122)" />
	<circle cx="43" cy="37" r="3.89105" fill="rgb(157,157,157)" />
	<circle cx="218" cy="488" r="7.75194" fill="rgb(29,29,29)" />
	<circle cx="87" cy="315" r="5.07614" fill="rgb(97,97,97)" />
	<circle cx="252" cy="514" r="9.17431" fill="rgb(9,9,9)" />
	<circle cx="338" cy="214" r="3.89105" fill="rgb(157,157,157)" />
	<circle cx="256" cy="548" r="9.61539" fill="rgb(4,4,4)" />
	<circle cx="113" cy="581" r="9.52381" fill="rgb(5,5,5)" />
	<circle cx="230" cy="580" r="9.09091" fill="rgb(10,10,10)" />
	<circle cx="296" cy="549" r="8.69565" fill="rgb(15,15,15)" />
	<circle cx="142" cy="281" r="6.75676" fill="rgb(48,48,48)" />
	<circle cx="299" cy="316" r="4" fill="rgb(150,150,150)" />
	<circle cx="212" cy="449" r="6.17284" fill="rgb(62,62,62)" />
	<circle cx="539" cy="60" r="5.15464" fill="rgb(94,94,94)" />
	<circle cx="339" cy="430" r="5.37634" fill="rgb(86,86,86)" />
	<circle cx="349" cy="580" r="8.69565" fill="rgb(15,15,15)" />
	<circle cx="237" cy="127" r="4.92611" fill="rgb(103,103,103)" />
	<circle cx="150" cy="385" r="6.99301" fill="rgb(43,43,43)" />
	<circle cx="159" cy="425" r="7.8125" fill="rgb(28,28,28)" />
	<circle cx="495" cy="64" r="5.68182" fill="rgb(76,76,76)" />
	<circle cx="297" cy="258" r="5.34759" fill="rgb(87,87,87)" />
	<circle cx="120" cy="472" r="5.40541" fill="rgb(85,85,85)" />
	<circle cx="71" cy="582" r="9.34579" fill="rgb(7,7,7)" />
	<circle cx="391" cy="580" r="7.8125" fill="rgb(28,28,28)" />
	<circle cx="502" cy="555" r="7.87402" fill="rgb(27,27,27)" />
	<circle cx="257" cy="4" r="5.58659" fill="rgb(79,79,79)" />
	<circle cx="27" cy="109" r="4.11523" fill="rgb(143,143,143)" />
	<circle cx="539" cy="582" r="8.06452" fill="rgb(24,24,24)" />
	<circle cx="492" cy="22" r="5.68182" fill="rgb(76,76,76)" />
	<circle cx="132" cy="45" r="3.87597" fill="rgb(158,158,158)" />
	<circle cx="492" cy="428" r="3.98406" fill="rgb(151,151,151)" />
	<circle cx="23" cy="579" r="9.43396" fill="rgb(6,6,6)" />
	<circle cx="196" cy="404" r="5.71429" fill="rgb(75,75,75)" />
	<circle cx="99" cy="257" r="5.12821" fill="rgb(95,95,95)" />
	<circle cx="19" cy="536" r="9.17431" fill="rgb(9,9,9)" />
	<circle cx="540" cy="99" r="5.31915" fill="rgb(88,88,88)" />
	<circle cx="271" cy="583" r="9.09091" fill="rgb(10,10,10)" />
	<circle cx="419" cy="508" r="7.75194" fill="rgb(29,29,29)" />
	<circle cx="549" cy="179" r="5.02513" fill="rgb(99,99,99)" />
	<circle cx="540" cy="503" r="6.17284" fill="rgb(62,62,62)" />
	<circle cx="413" cy="545" r="7.63359" fill="rgb(31,31,31)" />
	<circle cx="311" cy="581" r="9.17431" fill="rgb(9,9,9)" />
	<circle cx="136" cy="334" r="5.74713" fill="rgb(74,74,74)" />
	<circle cx="228" cy="307" r="4.34783" fill="rgb(130,130,130)" />
	<circle cx="89" cy="382" r="4.23729" fill="rgb(136,136,136)" />
	<circle cx="178" cy="462" r="8.13008" fill="rgb(23,23,23)" />
	<circle cx="145" cy="544" r="9.52381" fill="rgb(5,5,5)" />
	<circle cx="521" cy="354" r="3.34448" fill="rgb(199,199,199)" />
	<circle cx="87" cy="512" r="9.34579" fill="rgb(7,7,7)" />
	<circle cx="194" cy="220" r="5.02513" fill="rgb(99,99,99)" />
	<circle cx="187" cy="109" r="4.80769" fill="rgb(108,108,108)" />
	<circle cx="392" cy="117" r="3.40136" fill="rgb(194,194,194)" />
	<circle cx="306" cy="480" r="4.40529" fill="rgb(127,127,127)" />
	<circle cx="543" cy="543" r="7.75194" fill="rgb(29,29,29)" />
	<circle cx="422" cy="469" r="7.14286" fill="rgb(40,40,40)" />
	<circle cx="495" cy="483" r="5.81395" fill="rgb(72,72,72)" />
	<circle cx="458" cy="506" r="7.40741" fill="rgb(35,35,35)" />
	<circle cx="403" cy="242" r="5.18135" fill="rgb(93,93,93)" />
	<circle cx="147" cy="230" r="5.34759" fill="rgb(87,87,87)" />
	<circle cx="248" cy="426" r="5.2356" fill="rgb(91,91,91)" />
	<circle cx="439" cy="581" r="7.14286" fill="rgb(40,40,40)" />
	<circle cx="141" cy="125" r="4.97512" fill="rgb(101,101,101)" />
	<circle cx="538" cy="452" r="4.06504" fill="rgb(146,146,146)" />
	<circle cx="191" cy="578" r="9.43396" fill="rgb(6,6,6)" />
	<circle cx="177" cy="310" r="6.0241" fill="rgb(66,66,66)" />
	<circle cx="499" cy="522" r="7.35294" fill="rgb(36,36,36)" />
	<circle cx="244" cy="375" r="4.65116" fill="rgb(115,115,115)" />
	<circle cx="188" cy="355" r="5.55556" fill="rgb(80,80,80)" />
	<circle cx="153" cy="581" r="9.52381" fill="rgb(5,5,5)" />
	<circle cx="66" cy="474" r="9.00901" fill="rgb(11,11,11)" />
	<circle cx="110" cy="188" r="4.65116" fill="rgb(115,115,115)" />
	<circle cx="193" cy="524" r="6.45161" fill="rgb(55,55,55)" />
	<circle cx="381" cy="311" r="3.67647" fill="rgb(172,172,172)" />
	<circle cx="230" cy="187" r="4.83092" fill="rgb(107,107,107)" />
	<circle cx="254" cy="478" r="6.49351" fill="rgb(54,54,54)" />
	<circle cx="29" cy="327" r="4.38596" fill="rgb(128,128,128)" />
	<circle cx="400" cy="410" r="3.96825" fill="rgb(152,152,152)" />
	<circle cx="285" cy="220" r="5.26316" fill="rgb(90,90,90)" />
	<circle cx="455" cy="463" r="6.0241" fill="rgb(66,66,66)" />
	<circle cx="19" cy="491" r="9.17431" fill="rgb(9,9,9)" />
	<circle cx="453" cy="19" r="6.09756" fill="rgb(64,64,64)" />
	<circle cx="459" cy="545" r="7.5188" fill="rgb(33,33,33)" />
	<circle cx="52" cy="509" r="9.25926" fill="rgb(8,8,8)" />
	<circle cx="176" cy="169" r="4.87805" fill="rgb(105,105,105)" />
	<circle cx="289" cy="517" r="8.84956" fill="rgb(13,13,13)" />
	<circle cx="186" cy="266" r="5.52486" fill="rgb(81,81,81)" />
	<circle cx="240" cy="248" r="5" fill="rgb(100,100,100)" />
	<circle cx="414" cy="271" r="5.55556" fill="rgb(80,80,80)" />
	<circle cx="538" cy="19" r="5.26316" fill="rgb(90,90,90)" />
	<circle cx="61" cy="547" r="9.25926" fill="rgb(8,8,8)" />
	<circle cx="107" cy="542" r="9.43396" fill="rgb(6,6,6)" />
	<circle cx="364" cy="512" r="5.05051" fill="rgb(98,98,98)" />
	<circle cx="488" cy="584" r="8.19672" fill="rgb(22,22,22)" />
	<circle cx="39" cy="262" r="4.329" fill="rgb(131,131,131)" />
	<circle cx="546" cy="138" r="5.18135" fill="rgb(93,93,93)" />
	<circle cx="291" cy="423" r="5.26316" fill="rgb(90,90,90)" />
</svg>
