<?xml version="1.0" standalone="no" ?>
<!DOCTYPE svg PUBLIC "-//W3C//DTD SVG 1.1//EN" "http://www.w3.org/Graphics/SVG/1.1/DTD/svg11.dtd">
<svg width="385px" height="348px" xmlns="http://www.w3.org/2000/svg" version="1.1" >
	<circle cx="286" cy="63" r="1.54321" fill="rgb(0,0,0)" />
	<circle cx="343" cy="158" r="1.54799" fill="rgb(0,0,0)" />
	<circle cx="75" cy="239" r="1.42857" fill="rgb(0,0,0)" />
	<circle cx="214" cy="291" r="1.54321" fill="rgb(0,0,0)" />
	<circle cx="197" cy="42" r="1.47929" fill="rgb(0,0,0)" />
	<circle cx="27" cy="125" r="1.54799" fill="rgb(0,0,0)" />
	<circle cx="226" cy="112" r="1.54321" fill="rgb(0,0,0)" />
	<circle cx="348" cy="37" r="1.47059" fill="rgb(0,0,0)" />
	<circle cx="124" cy="233" r="1.54321" fill="rgb(0,0,0)" />
	<circle cx="286" cy="230" r="1.54799" fill="rgb(0,0,0)" />
	<circle cx="151" cy="65" r="1.54321" fill="rgb(0,0,0)" />
	<circle cx="126" cy="48" r="1.54321" fill="rgb(0,0,0)" />
	<circle cx="72" cy="104" r="1.54321" fill="rgb(0,0,0)" />
	<circle cx="354" cy="131" r="1.54799" fill="rgb(0,0,0)" />
	<circle cx="121" cy="155" r="1.54321" fill="rgb(0,0,0)" />
	<circle cx="33" cy="39" r="1.47059" fill="rgb(0,0,0)" />
	<circle cx="142" cy="285" r="1.54799" fill="rgb(0,0,0)" />
	<circle cx="97" cy="226" r="1.54321" fill="rgb(0,0,0)" />
	<circle cx="70" cy="75" r="1.54321" fill="rgb(0,0,0)" />
	<circle cx="263" cy="168" r="1.54321" fill="rgb(0,0,0)" />
	<circle cx="184" cy="320" r="1.54321" fill="rgb(0,0,0)" />
	<circle cx="36" cy="70" r="1.54799" fill="rgb(0,0,0)" />
	<circle cx="253" cy="62" r="1.54321" fill="rgb(0,0,0)" />
	<circle cx="113" cy="207" r="1.54321" fill="rgb(0,0,0)" />
	<circle cx="142" cy="208" r="1.54321" fill="rgb(0,0,0)" />
	<circle cx="278" cy="35" r="1.54321" fill="rgb(0,0,0)" />
	<circle cx="121" cy="264" r="1.54799" fill="rgb(0,0,0)" />
	<circle cx="287" cy="121" r="1.54321" fill="rgb(0,0,0)" />
	<circle cx="94" cy="51" r="1.54321" fill="rgb(0,0,0)" />
	<circle cx="92" cy="131" r="1.54321" fill="rgb(0,0,0)" />
	<circle cx="161" cy="94" r="1.54321" fill="rgb(0,0,0)" />
	<circle cx="311" cy="27" r="1.54799" fill="rgb(0,0,0)" />
	<circle cx="291" cy="92" r="1.54321" fill="rgb(0,0,0)" />
	<circle cx="229" cy="84" r="1.54321" fill="rgb(0,0,0)" />
	<circle cx="103" cy="26" r="1.54321" fill="rgb(0,0,0)" />
	<circle cx="177" cy="178" r="1.54321" fill="rgb(0,0,0)" />
	<circle cx="152" cy="151" r="1.54321" fill="rgb(0,0,0)" />
	<circle cx="258" cy="229" r="1.54321" fill="rgb(0,0,0)" />
	<circle cx="189" cy="289" r="1.54321" fill="rgb(0,0,0)" />
	<circle cx="261" cy="197" r="1.54321" fill="rgb(0,0,0)" />
	<circle cx="231" cy="190" r="1.54321" fill="rgb(0,0,0)" />
	<circle cx="368" cy="97" r="1.54321" fill="rgb(0,0,0)" />
	<circle cx="65" cy="160" r="1.54321" fill="rgb(0,0,0)" />
	<circle cx="343" cy="105" r="1.54321" fill="rgb(0,0,0)" />
	<circle cx="325" cy="184" r="1.54799" fill="rgb(0,0,0)" />
	<circle cx="353" cy="70" r="1.54799" fill="rgb(0,0,0)" />
	<circle cx="60" cy="132" r="1.54321" fill="rgb(0,0,0)" />
	<circle cx="101" cy="104" r="1.54321" fill="rgb(0,0,0)" />
	<circle cx="132" cy="104" r="1.54321" fill="rgb(0,0,0)" />
	<circle cx="171" cy="237" r="1.54321" fill="rgb(0,0,0)" />
	<circle cx="148" cy="180" r="1.54321" fill="rgb(0,0,0)" />
	<circle cx="240" cy="254" r="1.54321" fill="rgb(0,0,0)" />
	<circle cx="102" cy="77" r="1.54321" fill="rgb(0,0,0)" />
	<circle cx="216" cy="250" r="1.54321" fill="rgb(0,0,0)" />
	<circle cx="166" cy="268" r="1.54321" fill="rgb(0,0,0)" />
	<circle cx="236" cy="163" r="1.54321" fill="rgb(0,0,0)" />
	<circle cx="314" cy="154" r="1.54321" fill="rgb(0,0,0)" />
	<circle cx="225" cy="229" r="1.54321" fill="rgb(0,0,0)" />
	<circle cx="217" cy="141" r="1.54321" fill="rgb(0,0,0)" />
	<circle cx="73" cy="21" r="1.54799" fill="rgb(0,0,0)" />
	<circle cx="148" cy="234" r="1.54321" fill="rgb(0,0,0)" />
	<circle cx="294" cy="180" r="1.54321" fill="rgb(0,0,0)" />
	<circle cx="231" cy="302" r="1.54321" fill="rgb(0,0,0)" />
	<circle cx="45" cy="102" r="1.54321" fill="rgb(0,0,0)" />
	<circle cx="286" cy="206" r="1.54321" fill="rgb(0,0,0)" />
	<circle cx="202" cy="203" r="1.54321" fill="rgb(0,0,0)" />
	<circle cx="125" cy="129" r="1.54321" fill="rgb(0,0,0)" />
	<circle cx="254" cy="133" r="1.54321" fill="rgb(0,0,0)" />
	<circle cx="119" cy="182" r="1.54321" fill="rgb(0,0,0)" />
	<circle cx="259" cy="98" r="1.54321" fill="rgb(0,0,0)" />
	<circle cx="63" cy="46" r="1.54321" fill="rgb(0,0,0)" />
	<circle cx="89" cy="185" r="1.54321" fill="rgb(0,0,0)" />
	<circle cx="196" cy="231" r="1.54321" fill="rgb(0,0,0)" />
	<circle cx="190" cy="260" r="1.54321" fill="rgb(0,0,0)" />
	<circle cx="103" cy="249" r="1.54321" fill="rgb(0,0,0)" />
	<circle cx="236" cy="212" r="1.54321" fill="rgb(0,0,0)" />
	<circle cx="312" cy="208" r="1.54321" fill="rgb(0,0,0)" />
	<circle cx="17" cy="94" r="1.54321" fill="rgb(0,0,0)" />
	<circle cx="207" cy="315" r="1.54799" fill="rgb(0,0,0)" />
	<circle cx="164" cy="299" r="1.54799" fill="rgb(0,0,0)" />
	<circle cx="285" cy="150" r="1.54321" fill="rgb(0,0,0)" />
	<circle cx="213" cy="271" r="1.54321" fill="rgb(0,0,0)" />
	<circle cx="185" cy="146" r="1.54321" fill="rgb(0,0,0)" />
	<circle cx="280" cy="251" r="1.54799" fill="rgb(0,0,0)" />
	<circle cx="130" cy="77" r="1.54321" fill="rgb(0,0,0)" />
	<circle cx="242" cy="280" r="1.54321" fill="rgb(0,0,0)" />
	<circle cx="92" cy="158" r="1.54321" fill="rgb(0,0,0)" />
	<circle cx="194" cy="113" r="1.54321" fill="rgb(0,0,0)" />
	<circle cx="171" cy="207" r="1.54321" fill="rgb(0,0,0)" />
	<circle cx="321" cy="89" r="1.54321" fill="rgb(0,0,0)" />
	<circle cx="262" cy="263" r="1.54321" fill="rgb(0,0,0)" />
	<circle cx="57" cy="185" r="1.54321" fill="rgb(0,0,0)" />
	<circle cx="143" cy="259" r="1.54321" fill="rgb(0,0,0)" />
	<circle cx="162" cy="123" r="1.54321" fill="rgb(0,0,0)" />
	<circle cx="319" cy="58" r="1.54321" fill="rgb(0,0,0)" />
	<circle cx="319" cy="124" r="1.54321" fill="rgb(0,0,0)" />
	<circle cx="206" cy="173" r="1.54321" fill="rgb(0,0,0)" />
	<circle cx="313" cy="235" r="1.42857" fill="rgb(0,0,0)" />
	<circle cx="76" cy="210" r="1.54321" fill="rgb(0,0,0)" />
	<circle cx="36" cy="155" r="1.54321" fill="rgb(0,0,0)" />
</svg>
