<?xml version="1.0" standalone="no" ?>
<!DOCTYPE svg PUBLIC "-//W3C//DTD SVG 1.1//EN" "http://www.w3.org/Graphics/SVG/1.1/DTD/svg11.dtd">
<svg width="387px" height="348px" xmlns="http://www.w3.org/2000/svg" version="1.1" >
	<circle cx="213" cy="229" r="3.84615" fill="rgb(0,0,0)" />
	<circle cx="123" cy="114" r="3.84615" fill="rgb(0,0,0)" />
	<circle cx="363" cy="69" r="3.87597" fill="rgb(0,0,0)" />
	<circle cx="258" cy="198" r="3.84615" fill="rgb(0,0,0)" />
	<circle cx="63" cy="55" r="3.84615" fill="rgb(0,0,0)" />
	<circle cx="234" cy="173" r="3.84615" fill="rgb(0,0,0)" />
	<circle cx="160" cy="286" r="3.84615" fill="rgb(0,0,0)" />
	<circle cx="298" cy="147" r="3.84615" fill="rgb(0,0,0)" />
	<circle cx="30" cy="48" r="2.05761" fill="rgb(0,0,0)" />
	<circle cx="131" cy="180" r="3.84615" fill="rgb(0,0,0)" />
	<circle cx="354" cy="151" r="3.84615" fill="rgb(0,0,0)" />
	<circle cx="261" cy="173" r="3.84615" fill="rgb(0,0,0)" />
	<circle cx="179" cy="171" r="3.84615" fill="rgb(0,0,0)" />
	<circle cx="218" cy="94" r="3.87597" fill="rgb(0,0,0)" />
	<circle cx="292" cy="25" r="3.84615" fill="rgb(0,0,0)" />
	<circle cx="330" cy="108" r="3.84615" fill="rgb(0,0,0)" />
	<circle cx="32" cy="135" r="3.87597" fill="rgb(0,0,0)" />
	<circle cx="220" cy="303" r="3.87597" fill="rgb(0,0,0)" />
	<circle cx="135" cy="212" r="3.84615" fill="rgb(0,0,0)" />
	<circle cx="337" cy="58" r="3.84615" fill="rgb(0,0,0)" />
	<circle cx="153" cy="160" r="3.84615" fill="rgb(0,0,0)" />
	<circle cx="184" cy="40" r="2.11864" fill="rgb(0,0,0)" />
	<circle cx="102" cy="194" r="3.84615" fill="rgb(0,0,0)" />
	<circle cx="194" cy="287" r="3.84615" fill="rgb(0,0,0)" />
	<circle cx="290" cy="50" r="3.84615" fill="rgb(0,0,0)" />
	<circle cx="270" cy="146" r="3.84615" fill="rgb(0,0,0)" />
	<circle cx="181" cy="229" r="3.84615" fill="rgb(0,0,0)" />
	<circle cx="215" cy="119" r="3.84615" fill="rgb(0,0,0)" />
	<circle cx="258" cy="274" r="3.87597" fill="rgb(0,0,0)" />
	<circle cx="280" cy="255" r="3.84615" fill="rgb(0,0,0)" />
	<circle cx="175" cy="259" r="3.84615" fill="rgb(0,0,0)" />
	<circle cx="214" cy="146" r="3.84615" fill="rgb(0,0,0)" />
	<circle cx="234" cy="252" r="3.84615" fill="rgb(0,0,0)" />
	<circle cx="264" cy="67" r="3.84615" fill="rgb(0,0,0)" />
	<circle cx="288" cy="74" r="3.84615" fill="rgb(0,0,0)" />
	<circle cx="184" cy="141" r="3.84615" fill="rgb(0,0,0)" />
	<circle cx="244" cy="223" r="3.84615" fill="rgb(0,0,0)" />
	<circle cx="122" cy="83" r="3.84615" fill="rgb(0,0,0)" />
	<circle cx="186" cy="110" r="3.87597" fill="rgb(0,0,0)" />
	<circle cx="24" cy="97" r="3.84615" fill="rgb(0,0,0)" />
	<circle cx="340" cy="83" r="3.84615" fill="rgb(0,0,0)" />
	<circle cx="195" cy="319" r="3.84615" fill="rgb(0,0,0)" />
	<circle cx="99" cy="160" r="3.84615" fill="rgb(0,0,0)" />
	<circle cx="169" cy="310" r="3.84615" fill="rgb(0,0,0)" />
	<circle cx="232" cy="281" r="3.84615" fill="rgb(0,0,0)" />
	<circle cx="79" cy="232" r="1.57729" fill="rgb(0,0,0)" />
	<circle cx="314" cy="174" r="3.84615" fill="rgb(0,0,0)" />
	<circle cx="67" cy="205" r="3.87597" fill="rgb(0,0,0)" />
	<circle cx="265" cy="93" r="3.84615" fill="rgb(0,0,0)" />
	<circle cx="64" cy="24" r="3.87597" fill="rgb(0,0,0)" />
	<circle cx="278" cy="222" r="3.84615" fill="rgb(0,0,0)" />
	<circle cx="207" cy="173" r="3.84615" fill="rgb(0,0,0)" />
	<circle cx="156" cy="99" r="3.84615" fill="rgb(0,0,0)" />
	<circle cx="313" cy="18" r="3.87597" fill="rgb(0,0,0)" />
	<circle cx="150" cy="237" r="3.84615" fill="rgb(0,0,0)" />
	<circle cx="242" cy="146" r="3.84615" fill="rgb(0,0,0)" />
	<circle cx="287" cy="171" r="3.84615" fill="rgb(0,0,0)" />
	<circle cx="163" cy="198" r="3.84615" fill="rgb(0,0,0)" />
	<circle cx="244" cy="120" r="3.84615" fill="rgb(0,0,0)" />
	<circle cx="121" cy="50" r="3.84615" fill="rgb(0,0,0)" />
	<circle cx="93" cy="122" r="3.84615" fill="rgb(0,0,0)" />
	<circle cx="66" cy="147" r="3.84615" fill="rgb(0,0,0)" />
	<circle cx="93" cy="42" r="3.84615" fill="rgb(0,0,0)" />
	<circle cx="195" cy="200" r="3.84615" fill="rgb(0,0,0)" />
	<circle cx="325" cy="151" r="3.84615" fill="rgb(0,0,0)" />
	<circle cx="308" cy="219" r="3.84615" fill="rgb(0,0,0)" />
	<circle cx="61" cy="113" r="3.84615" fill="rgb(0,0,0)" />
	<circle cx="336" cy="130" r="3.84615" fill="rgb(0,0,0)" />
	<circle cx="313" cy="68" r="3.84615" fill="rgb(0,0,0)" />
	<circle cx="312" cy="93" r="3.84615" fill="rgb(0,0,0)" />
	<circle cx="205" cy="258" r="3.84615" fill="rgb(0,0,0)" />
	<circle cx="138" cy="270" r="3.84615" fill="rgb(0,0,0)" />
	<circle cx="225" cy="200" r="3.84615" fill="rgb(0,0,0)" />
	<circle cx="260" cy="245" r="3.84615" fill="rgb(0,0,0)" />
	<circle cx="43" cy="171" r="3.87597" fill="rgb(0,0,0)" />
	<circle cx="334" cy="29" r="3.84615" fill="rgb(0,0,0)" />
	<circle cx="372" cy="94" r="3.81679" fill="rgb(0,0,0)" />
	<circle cx="342" cy="176" r="3.87597" fill="rgb(0,0,0)" />
	<circle cx="289" cy="98" r="3.84615" fill="rgb(0,0,0)" />
	<circle cx="52" cy="82" r="3.84615" fill="rgb(0,0,0)" />
	<circle cx="154" cy="129" r="3.84615" fill="rgb(0,0,0)" />
	<circle cx="150" cy="69" r="3.84615" fill="rgb(0,0,0)" />
	<circle cx="270" cy="36" r="3.84615" fill="rgb(0,0,0)" />
	<circle cx="115" cy="251" r="3.87597" fill="rgb(0,0,0)" />
	<circle cx="289" cy="196" r="3.84615" fill="rgb(0,0,0)" />
	<circle cx="249" cy="47" r="3.84615" fill="rgb(0,0,0)" />
	<circle cx="314" cy="43" r="3.84615" fill="rgb(0,0,0)" />
	<circle cx="299" cy="244" r="1.54321" fill="rgb(0,0,0)" />
	<circle cx="354" cy="39" r="1.84502" fill="rgb(0,0,0)" />
	<circle cx="74" cy="179" r="3.84615" fill="rgb(0,0,0)" />
	<circle cx="242" cy="95" r="3.84615" fill="rgb(0,0,0)" />
	<circle cx="90" cy="84" r="3.84615" fill="rgb(0,0,0)" />
	<circle cx="108" cy="223" r="3.84615" fill="rgb(0,0,0)" />
	<circle cx="124" cy="145" r="3.84615" fill="rgb(0,0,0)" />
	<circle cx="305" cy="122" r="3.84615" fill="rgb(0,0,0)" />
	<circle cx="236" cy="70" r="3.84615" fill="rgb(0,0,0)" />
	<circle cx="273" cy="121" r="3.84615" fill="rgb(0,0,0)" />
	<circle cx="365" cy="126" r="3.87597" fill="rgb(0,0,0)" />
	<circle cx="323" cy="199" r="3.87597" fill="rgb(0,0,0)" />
	<circle cx="354" cy="106" r="3.84615" fill="rgb(0,0,0)" />
</svg>
