<?xml version="1.0" standalone="no" ?>
<!DOCTYPE svg PUBLIC "-//W3C//DTD SVG 1.1//EN" "http://www.w3.org/Graphics/SVG/1.1/DTD/svg11.dtd">
<svg width="385px" height="348px" xmlns="http://www.w3.org/2000/svg" version="1.1" >
	<circle cx="76" cy="241" r="1.42857" fill="rgb(0,0,0)" />
	<circle cx="19" cy="79" r="1.54321" fill="rgb(0,0,0)" />
	<circle cx="289" cy="76" r="1.54321" fill="rgb(0,0,0)" />
	<circle cx="292" cy="148" r="1.54321" fill="rgb(0,0,0)" />
	<circle cx="40" cy="169" r="1.54321" fill="rgb(0,0,0)" />
	<circle cx="98" cy="48" r="1.54321" fill="rgb(0,0,0)" />
	<circle cx="173" cy="311" r="1.54799" fill="rgb(0,0,0)" />
	<circle cx="344" cy="35" r="1.47493" fill="rgb(0,0,0)" />
	<circle cx="78" cy="212" r="1.54321" fill="rgb(0,0,0)" />
	<circle cx="218" cy="184" r="1.54321" fill="rgb(0,0,0)" />
	<circle cx="102" cy="233" r="1.54321" fill="rgb(0,0,0)" />
	<circle cx="177" cy="286" r="1.54321" fill="rgb(0,0,0)" />
	<circle cx="88" cy="183" r="1.54321" fill="rgb(0,0,0)" />
	<circle cx="24" cy="125" r="1.54799" fill="rgb(0,0,0)" />
	<circle cx="164" cy="215" r="1.54321" fill="rgb(0,0,0)" />
	<circle cx="149" cy="244" r="1.54321" fill="rgb(0,0,0)" />
	<circle cx="357" cy="124" r="1.54321" fill="rgb(0,0,0)" />
	<circle cx="98" cy="75" r="1.54321" fill="rgb(0,0,0)" />
	<circle cx="257" cy="270" r="1.54321" fill="rgb(0,0,0)" />
	<circle cx="191" cy="188" r="1.54321" fill="rgb(0,0,0)" />
	<circle cx="144" cy="57" r="1.54799" fill="rgb(0,0,0)" />
	<circle cx="152" cy="294" r="1.54799" fill="rgb(0,0,0)" />
	<circle cx="176" cy="239" r="1.54321" fill="rgb(0,0,0)" />
	<circle cx="286" cy="210" r="1.54321" fill="rgb(0,0,0)" />
	<circle cx="181" cy="107" r="1.54321" fill="rgb(0,0,0)" />
	<circle cx="17" cy="101" r="1.54321" fill="rgb(0,0,0)" />
	<circle cx="283" cy="240" r="1.54799" fill="rgb(0,0,0)" />
	<circle cx="156" cy="82" r="1.54321" fill="rgb(0,0,0)" />
	<circle cx="120" cy="249" r="1.54321" fill="rgb(0,0,0)" />
	<circle cx="327" cy="120" r="1.54321" fill="rgb(0,0,0)" />
	<circle cx="321" cy="150" r="1.54321" fill="rgb(0,0,0)" />
	<circle cx="257" cy="60" r="1.54321" fill="rgb(0,0,0)" />
	<circle cx="92" cy="154" r="1.54321" fill="rgb(0,0,0)" />
	<circle cx="204" cy="42" r="1.47929" fill="rgb(0,0,0)" />
	<circle cx="74" cy="21" r="1.54799" fill="rgb(0,0,0)" />
	<circle cx="324" cy="89" r="1.54321" fill="rgb(0,0,0)" />
	<circle cx="314" cy="206" r="1.54321" fill="rgb(0,0,0)" />
	<circle cx="196" cy="303" r="1.54321" fill="rgb(0,0,0)" />
	<circle cx="153" cy="109" r="1.54321" fill="rgb(0,0,0)" />
	<circle cx="302" cy="180" r="1.54321" fill="rgb(0,0,0)" />
	<circle cx="73" cy="79" r="1.54321" fill="rgb(0,0,0)" />
	<circle cx="262" cy="102" r="1.54321" fill="rgb(0,0,0)" />
	<circle cx="230" cy="266" r="1.54321" fill="rgb(0,0,0)" />
	<circle cx="272" cy="178" r="1.54321" fill="rgb(0,0,0)" />
	<circle cx="294" cy="114" r="1.54321" fill="rgb(0,0,0)" />
	<circle cx="236" cy="133" r="1.54321" fill="rgb(0,0,0)" />
	<circle cx="128" cy="89" r="1.54321" fill="rgb(0,0,0)" />
	<circle cx="146" cy="164" r="1.54321" fill="rgb(0,0,0)" />
	<circle cx="150" cy="136" r="1.54321" fill="rgb(0,0,0)" />
	<circle cx="243" cy="169" r="1.54321" fill="rgb(0,0,0)" />
	<circle cx="331" cy="180" r="1.54799" fill="rgb(0,0,0)" />
	<circle cx="66" cy="133" r="1.54321" fill="rgb(0,0,0)" />
	<circle cx="74" cy="105" r="1.54321" fill="rgb(0,0,0)" />
	<circle cx="178" cy="263" r="1.54321" fill="rgb(0,0,0)" />
	<circle cx="137" cy="192" r="1.54321" fill="rgb(0,0,0)" />
	<circle cx="231" cy="93" r="1.54321" fill="rgb(0,0,0)" />
	<circle cx="349" cy="152" r="1.54321" fill="rgb(0,0,0)" />
	<circle cx="48" cy="111" r="1.54321" fill="rgb(0,0,0)" />
	<circle cx="29" cy="59" r="1.54321" fill="rgb(0,0,0)" />
	<circle cx="121" cy="35" r="1.54799" fill="rgb(0,0,0)" />
	<circle cx="295" cy="34" r="1.54799" fill="rgb(0,0,0)" />
	<circle cx="203" cy="249" r="1.54321" fill="rgb(0,0,0)" />
	<circle cx="256" cy="208" r="1.54321" fill="rgb(0,0,0)" />
	<circle cx="34" cy="35" r="1.45773" fill="rgb(0,0,0)" />
	<circle cx="179" cy="134" r="1.54321" fill="rgb(0,0,0)" />
	<circle cx="96" cy="23" r="1.54321" fill="rgb(0,0,0)" />
	<circle cx="355" cy="67" r="1.54321" fill="rgb(0,0,0)" />
	<circle cx="198" cy="217" r="1.54321" fill="rgb(0,0,0)" />
	<circle cx="133" cy="219" r="1.54321" fill="rgb(0,0,0)" />
	<circle cx="121" cy="145" r="1.54321" fill="rgb(0,0,0)" />
	<circle cx="177" cy="161" r="1.54321" fill="rgb(0,0,0)" />
	<circle cx="52" cy="58" r="1.54321" fill="rgb(0,0,0)" />
	<circle cx="360" cy="96" r="1.54799" fill="rgb(0,0,0)" />
	<circle cx="124" cy="118" r="1.54321" fill="rgb(0,0,0)" />
	<circle cx="194" cy="327" r="1.54321" fill="rgb(0,0,0)" />
	<circle cx="108" cy="205" r="1.54321" fill="rgb(0,0,0)" />
	<circle cx="101" cy="100" r="1.54321" fill="rgb(0,0,0)" />
	<circle cx="46" cy="85" r="1.54321" fill="rgb(0,0,0)" />
	<circle cx="320" cy="57" r="1.54321" fill="rgb(0,0,0)" />
	<circle cx="94" cy="127" r="1.54321" fill="rgb(0,0,0)" />
	<circle cx="208" cy="118" r="1.54321" fill="rgb(0,0,0)" />
	<circle cx="230" cy="239" r="1.54321" fill="rgb(0,0,0)" />
	<circle cx="233" cy="292" r="1.54321" fill="rgb(0,0,0)" />
	<circle cx="258" cy="242" r="1.54321" fill="rgb(0,0,0)" />
	<circle cx="227" cy="211" r="1.54321" fill="rgb(0,0,0)" />
	<circle cx="265" cy="139" r="1.54321" fill="rgb(0,0,0)" />
	<circle cx="164" cy="188" r="1.54321" fill="rgb(0,0,0)" />
	<circle cx="116" cy="174" r="1.54321" fill="rgb(0,0,0)" />
	<circle cx="55" cy="31" r="1.54799" fill="rgb(0,0,0)" />
	<circle cx="75" cy="51" r="1.54321" fill="rgb(0,0,0)" />
	<circle cx="313" cy="234" r="1.42857" fill="rgb(0,0,0)" />
	<circle cx="37" cy="144" r="1.54321" fill="rgb(0,0,0)" />
	<circle cx="121" cy="62" r="1.54321" fill="rgb(0,0,0)" />
	<circle cx="65" cy="160" r="1.54321" fill="rgb(0,0,0)" />
	<circle cx="127" cy="272" r="1.54321" fill="rgb(0,0,0)" />
	<circle cx="152" cy="270" r="1.54321" fill="rgb(0,0,0)" />
	<circle cx="205" cy="279" r="1.54321" fill="rgb(0,0,0)" />
	<circle cx="208" cy="153" r="1.54321" fill="rgb(0,0,0)" />
	<circle cx="216" cy="311" r="1.54799" fill="rgb(0,0,0)" />
	<circle cx="61" cy="189" r="1.54321" fill="rgb(0,0,0)" />
</svg>
