<?xml version="1.0" standalone="no" ?>
<!DOCTYPE svg PUBLIC "-//W3C//DTD SVG 1.1//EN" "http://www.w3.org/Graphics/SVG/1.1/DTD/svg11.dtd">
<svg width="563px" height="600px" xmlns="http://www.w3.org/2000/svg" version="1.1" >
	<circle cx="73" cy="511" r="4.62963" fill="rgb(8,8,8)" />
	<circle cx="294" cy="539" r="4.34783" fill="rgb(15,15,15)" />
	<circle cx="441" cy="462" r="3.14465" fill="rgb(59,59,59)" />
	<circle cx="277" cy="177" r="2.24215" fill="rgb(123,123,123)" />
	<circle cx="257" cy="546" r="4.80769" fill="rgb(4,4,4)" />
	<circle cx="18" cy="488" r="4.58716" fill="rgb(9,9,9)" />
	<circle cx="36" cy="512" r="4.62963" fill="rgb(8,8,8)" />
	<circle cx="467" cy="579" r="3.67647" fill="rgb(36,36,36)" />
	<circle cx="207" cy="368" r="2.53807" fill="rgb(97,97,97)" />
	<circle cx="541" cy="23" r="2.60417" fill="rgb(92,92,92)" />
	<circle cx="223" cy="476" r="3.59712" fill="rgb(39,39,39)" />
	<circle cx="35" cy="362" r="1.95313" fill="rgb(156,156,156)" />
	<circle cx="106" cy="586" r="4.7619" fill="rgb(5,5,5)" />
	<circle cx="223" cy="164" r="2.42718" fill="rgb(106,106,106)" />
	<circle cx="173" cy="334" r="3.08642" fill="rgb(62,62,62)" />
	<circle cx="499" cy="20" r="2.7933" fill="rgb(79,79,79)" />
	<circle cx="70" cy="171" r="2.10084" fill="rgb(138,138,138)" />
	<circle cx="265" cy="222" r="2.60417" fill="rgb(92,92,92)" />
	<circle cx="543" cy="538" r="3.78788" fill="rgb(32,32,32)" />
	<circle cx="297" cy="498" r="2.90698" fill="rgb(72,72,72)" />
	<circle cx="236" cy="258" r="2.43902" fill="rgb(105,105,105)" />
	<circle cx="108" cy="523" r="4.71698" fill="rgb(6,6,6)" />
	<circle cx="193" cy="578" r="4.71698" fill="rgb(6,6,6)" />
	<circle cx="182" cy="462" r="4" fill="rgb(25,25,25)" />
	<circle cx="535" cy="494" r="2.97619" fill="rgb(68,68,68)" />
	<circle cx="312" cy="391" r="2.41546" fill="rgb(107,107,107)" />
	<circle cx="482" cy="493" r="3.18471" fill="rgb(57,57,57)" />
	<circle cx="20" cy="580" r="4.71698" fill="rgb(6,6,6)" />
	<circle cx="408" cy="250" r="2.76243" fill="rgb(81,81,81)" />
	<circle cx="542" cy="71" r="2.57732" fill="rgb(94,94,94)" />
	<circle cx="252" cy="508" r="4.46429" fill="rgb(12,12,12)" />
	<circle cx="87" cy="553" r="4.6729" fill="rgb(7,7,7)" />
	<circle cx="286" cy="315" r="1.96078" fill="rgb(155,155,155)" />
	<circle cx="176" cy="159" r="2.42718" fill="rgb(106,106,106)" />
	<circle cx="195" cy="522" r="3.24675" fill="rgb(54,54,54)" />
	<circle cx="459" cy="538" r="3.78788" fill="rgb(32,32,32)" />
	<circle cx="83" cy="328" r="2.57732" fill="rgb(94,94,94)" />
	<circle cx="329" cy="348" r="2.60417" fill="rgb(92,92,92)" />
	<circle cx="367" cy="508" r="2.53807" fill="rgb(97,97,97)" />
	<circle cx="209" cy="424" r="2.85714" fill="rgb(75,75,75)" />
	<circle cx="549" cy="162" r="2.55102" fill="rgb(96,96,96)" />
	<circle cx="118" cy="285" r="2.85714" fill="rgb(75,75,75)" />
	<circle cx="310" cy="43" r="1.74216" fill="rgb(187,187,187)" />
	<circle cx="163" cy="294" r="3.04878" fill="rgb(64,64,64)" />
	<circle cx="131" cy="337" r="2.84091" fill="rgb(76,76,76)" />
	<circle cx="383" cy="303" r="1.84502" fill="rgb(171,171,171)" />
	<circle cx="153" cy="581" r="4.7619" fill="rgb(5,5,5)" />
	<circle cx="508" cy="579" r="4.03226" fill="rgb(24,24,24)" />
	<circle cx="62" cy="583" r="4.62963" fill="rgb(8,8,8)" />
	<circle cx="431" cy="502" r="3.64964" fill="rgb(37,37,37)" />
	<circle cx="469" cy="49" r="2.99401" fill="rgb(67,67,67)" />
	<circle cx="503" cy="68" r="2.7933" fill="rgb(79,79,79)" />
	<circle cx="27" cy="31" r="1.94553" fill="rgb(157,157,157)" />
	<circle cx="236" cy="581" r="4.54545" fill="rgb(10,10,10)" />
	<circle cx="210" cy="114" r="2.65957" fill="rgb(88,88,88)" />
	<circle cx="422" cy="581" r="3.7594" fill="rgb(33,33,33)" />
	<circle cx="328" cy="579" r="4.54545" fill="rgb(10,10,10)" />
	<circle cx="74" cy="274" r="2.46305" fill="rgb(103,103,103)" />
	<circle cx="317" cy="218" r="2.40385" fill="rgb(108,108,108)" />
	<circle cx="125" cy="161" r="2.30415" fill="rgb(117,117,117)" />
	<circle cx="109" cy="393" r="2.33645" fill="rgb(114,114,114)" />
	<circle cx="502" cy="537" r="3.78788" fill="rgb(32,32,32)" />
	<circle cx="66" cy="476" r="4.54545" fill="rgb(10,10,10)" />
	<circle cx="161" cy="381" r="3.42466" fill="rgb(46,46,46)" />
	<circle cx="142" cy="44" r="1.92308" fill="rgb(160,160,160)" />
	<circle cx="120" cy="470" r="2.68817" fill="rgb(86,86,86)" />
	<circle cx="148" cy="540" r="4.7619" fill="rgb(5,5,5)" />
	<circle cx="328" cy="437" r="2.33645" fill="rgb(114,114,114)" />
	<circle cx="210" cy="210" r="2.48756" fill="rgb(101,101,101)" />
	<circle cx="145" cy="252" r="2.95858" fill="rgb(69,69,69)" />
	<circle cx="375" cy="579" r="4.03226" fill="rgb(24,24,24)" />
	<circle cx="53" cy="546" r="4.62963" fill="rgb(8,8,8)" />
	<circle cx="516" cy="441" r="2.01613" fill="rgb(148,148,148)" />
	<circle cx="267" cy="446" r="2.40385" fill="rgb(108,108,108)" />
	<circle cx="122" cy="558" r="4.7619" fill="rgb(5,5,5)" />
	<circle cx="33" cy="230" r="2.04082" fill="rgb(145,145,145)" />
	<circle cx="31" cy="94" r="2.04082" fill="rgb(145,145,145)" />
	<circle cx="157" cy="208" r="2.53807" fill="rgb(97,97,97)" />
	<circle cx="161" cy="422" r="3.84615" fill="rgb(30,30,30)" />
	<circle cx="40" cy="443" r="2.19298" fill="rgb(128,128,128)" />
	<circle cx="283" cy="580" r="4.58716" fill="rgb(9,9,9)" />
	<circle cx="98" cy="107" r="2.07469" fill="rgb(141,141,141)" />
	<circle cx="23" cy="153" r="2.02429" fill="rgb(147,147,147)" />
	<circle cx="255" cy="123" r="2.34742" fill="rgb(113,113,113)" />
	<circle cx="452" cy="182" r="1.6835" fill="rgb(197,197,197)" />
	<circle cx="520" cy="359" r="1.68919" fill="rgb(196,196,196)" />
	<circle cx="455" cy="15" r="3.0303" fill="rgb(65,65,65)" />
	<circle cx="545" cy="579" r="4.16667" fill="rgb(20,20,20)" />
	<circle cx="297" cy="258" r="2.65957" fill="rgb(88,88,88)" />
	<circle cx="16" cy="541" r="4.62963" fill="rgb(8,8,8)" />
	<circle cx="403" cy="411" r="1.99203" fill="rgb(151,151,151)" />
	<circle cx="413" cy="543" r="3.84615" fill="rgb(30,30,30)" />
	<circle cx="188" cy="257" r="2.68817" fill="rgb(86,86,86)" />
	<circle cx="82" cy="33" r="1.95313" fill="rgb(156,156,156)" />
	<circle cx="101" cy="224" r="2.42718" fill="rgb(106,106,106)" />
	<circle cx="29" cy="298" r="2.18341" fill="rgb(129,129,129)" />
	<circle cx="256" cy="389" r="2.48756" fill="rgb(101,101,101)" />
	<circle cx="160" cy="110" r="2.40385" fill="rgb(108,108,108)" />
	<circle cx="543" cy="115" r="2.6455" fill="rgb(89,89,89)" />
	<circle cx="216" cy="309" r="2.31481" fill="rgb(116,116,116)" />
</svg>
